<svg version="1.1" xmlns="http://www.w3.org/2000/svg" width="850" height="320"><defs><clipPath id="KRHhaLXeWnpt"><path fill="none" stroke="none" d="M 67.5 27.5 L 677.5 27.5 L 677.5 275.5 L 67.5 275.5 L 67.5 27.5 Z"/></clipPath><clipPath id="oMlEFtLwnxXp"><path fill="none" stroke="none" d="M 67.5 27.5 L 677.5 27.5 L 677.5 275.5 L 67.5 275.5 L 67.5 27.5 Z"/></clipPath><clipPath id="NUAfkeEsrrVe"><path fill="none" stroke="none" d="M 67.5 27.5 L 677.5 27.5 L 677.5 275.5 L 67.5 275.5 L 67.5 27.5 Z"/></clipPath><clipPath id="zQmVvAnSVrLF"><path fill="none" stroke="none" d="M 67.5 27.5 L 677.5 27.5 L 677.5 275.5 L 67.5 275.5 L 67.5 27.5 Z"/></clipPath><clipPath id="qceTGqOswSHH"><path fill="none" stroke="none" d="M 67.5 27.5 L 677.5 27.5 L 677.5 275.5 L 67.5 275.5 L 67.5 27.5 Z"/></clipPath><clipPath id="JSXhocEQlIdy"><path fill="none" stroke="none" d="M 67.5 27.5 L 677.5 27.5 L 677.5 275.5 L 67.5 275.5 L 67.5 27.5 Z"/></clipPath><clipPath id="eIxGfOyDBptv"><path fill="none" stroke="none" d="M 67.5 27.5 L 677.5 27.5 L 677.5 275.5 L 67.5 275.5 L 67.5 27.5 Z"/></clipPath><clipPath id="OwSOkyMtrbbV"><path fill="none" stroke="none" d="M 67.5 27.5 L 677.5 27.5 L 677.5 275.5 L 67.5 275.5 L 67.5 27.5 Z"/></clipPath><clipPath id="sZfemvfrKJqX"><path fill="none" stroke="none" d="M 67.5 27.5 L 677.5 27.5 L 677.5 275.5 L 67.5 275.5 L 67.5 27.5 Z"/></clipPath><clipPath id="vthXQxPUAohu"><path fill="none" stroke="none" d="M 67.5 27.5 L 677.5 27.5 L 677.5 275.5 L 67.5 275.5 L 67.5 27.5 Z"/></clipPath><clipPath id="apKWfPoaTTNB"><path fill="none" stroke="none" d="M 67.5 27.5 L 677.5 27.5 L 677.5 275.5 L 67.5 275.5 L 67.5 27.5 Z"/></clipPath><clipPath id="pPzVVHJIQpgK"><path fill="none" stroke="none" d="M 67.5 27.5 L 677.5 27.5 L 677.5 275.5 L 67.5 275.5 L 67.5 27.5 Z"/></clipPath><clipPath id="aHSknWfAzxxH"><path fill="none" stroke="none" d="M 67.5 27.5 L 677.5 27.5 L 677.5 275.5 L 67.5 275.5 L 67.5 27.5 Z"/></clipPath><clipPath id="MwfcaXTlTTyQ"><path fill="none" stroke="none" d="M 67.5 27.5 L 677.5 27.5 L 677.5 275.5 L 67.5 275.5 L 67.5 27.5 Z"/></clipPath><clipPath id="WmRLCPGKDXaa"><path fill="none" stroke="none" d="M 67.5 27.5 L 677.5 27.5 L 677.5 275.5 L 67.5 275.5 L 67.5 27.5 Z"/></clipPath><clipPath id="OQTEvGLNFzOT"><path fill="none" stroke="none" d="M 67.5 27.5 L 677.5 27.5 L 677.5 275.5 L 67.5 275.5 L 67.5 27.5 Z"/></clipPath><clipPath id="OXCKWMalemyy"><path fill="none" stroke="none" d="M 67.5 27.5 L 677.5 27.5 L 677.5 275.5 L 67.5 275.5 L 67.5 27.5 Z"/></clipPath></defs><path fill="rgb(255,255,255)" stroke="none" paint-order="stroke" d="M 0.5 0.5 L 850.5 0.5 L 850.5 320.5 L 0.5 320.5 L 0.5 0.5 Z" fill-opacity="1"/><rect fill="#FFFFFF" stroke="none" x="67" y="27" width="610" height="248" transform="matrix(1, 0, 0, 1, 0.5, 0.5)"/><path fill="rgb(255,255,255)" stroke="none" paint-order="stroke" d="M 67.5 27.5 L 677.5 27.5 L 677.5 275.5 L 67.5 275.5 L 67.5 27.5 Z" fill-opacity="1"/><path fill="none" stroke="rgb(229,229,229)" paint-order="fill" d="M 67.5 27.5 L 677.5 27.5 L 677.5 275.5 L 67.5 275.5 L 67.5 27.5 Z" stroke-opacity="1" stroke-linejoin="bevel" stroke-miterlimit="10"/><path fill="none" stroke="rgb(48,162,218)" paint-order="fill" d="M 118.33333587646484 48.16666793823242 L 423.3333435058594 111.9837646484375 L 626.6666870117188 84.1709213256836" stroke-opacity="1" stroke-linejoin="bevel" stroke-miterlimit="10" stroke-width="2" stroke-dasharray="2,4" clip-path="url(#NUAfkeEsrrVe)"/><path fill="none" stroke="rgb(252,79,48)" paint-order="fill" d="M 118.33333587646484 106.23848724365234 L 423.3333435058594 224.8343963623047 L 626.6666870117188 253.0386962890625" stroke-opacity="1" stroke-linejoin="bevel" stroke-miterlimit="10" stroke-width="2" clip-path="url(#zQmVvAnSVrLF)"/><path fill="none" stroke="rgb(229,174,56)" paint-order="fill" d="M 118.33333587646484 200.37417602539062 L 423.3333435058594 218.76083374023438 L 626.6666870117188 216.0297088623047" stroke-opacity="1" stroke-linejoin="bevel" stroke-miterlimit="10" stroke-width="2" stroke-dasharray="6" clip-path="url(#qceTGqOswSHH)"/><path fill="none" stroke="rgb(109,144,79)" paint-order="fill" d="M 118.33333587646484 226.41897583007812 L 423.3333435058594 234.6280517578125 L 626.6666870117188 227.57102966308594" stroke-opacity="1" stroke-linejoin="bevel" stroke-miterlimit="10" stroke-width="2" stroke-dasharray="2,4" clip-path="url(#JSXhocEQlIdy)"/><path fill="none" stroke="rgb(139,139,139)" paint-order="fill" d="M 118.33333587646484 234.72320556640625 L 423.3333435058594 238.11785888671875 L 626.6666870117188 227.29698181152344" stroke-opacity="1" stroke-linejoin="bevel" stroke-miterlimit="10" stroke-width="2" clip-path="url(#eIxGfOyDBptv)"/><path fill="none" stroke="rgb(23,190,207)" paint-order="fill" d="M 118.33333587646484 219.56138610839844 L 423.3333435058594 227.3631591796875 L 626.6666870117188 254.8333282470703" stroke-opacity="1" stroke-linejoin="bevel" stroke-miterlimit="10" stroke-width="2" stroke-dasharray="6" clip-path="url(#OwSOkyMtrbbV)"/><path fill="none" stroke="rgb(148,103,189)" paint-order="fill" d="M 118.33333587646484 216.323974609375 L 423.3333435058594 242.14810180664062 L 626.6666870117188 254.07469177246094" stroke-opacity="1" stroke-linejoin="bevel" stroke-miterlimit="10" stroke-width="2" stroke-dasharray="2,4" clip-path="url(#sZfemvfrKJqX)"/><path fill="rgb(48,162,218)" stroke="rgb(48,162,218)" paint-order="fill" d="M 113.33333587646484 51.05341928418055 Q 118.33333587646484 49.24919969296297 123.33333587646484 51.05341928418055 Q 119.27083587646484 48.7079338155977 118.33333587646484 42.39316524633617 Q 117.39583587646484 48.7079338155977 113.33333587646484 51.05341928418055 Z" fill-opacity="1" clip-path="url(#vthXQxPUAohu)" stroke-opacity="1" stroke-linejoin="bevel" stroke-miterlimit="10"/><path fill="rgb(48,162,218)" stroke="rgb(48,162,218)" paint-order="fill" d="M 418.3333435058594 114.87051599438563 Q 423.3333435058594 113.06629640316805 428.3333435058594 114.87051599438563 Q 424.2708435058594 112.52503052580278 423.3333435058594 106.21026195654125 Q 422.3958435058594 112.52503052580278 418.3333435058594 114.87051599438563 Z" fill-opacity="1" clip-path="url(#vthXQxPUAohu)" stroke-opacity="1" stroke-linejoin="bevel" stroke-miterlimit="10"/><path fill="rgb(48,162,218)" stroke="rgb(48,162,218)" paint-order="fill" d="M 621.6666870117188 87.05767267163172 Q 626.6666870117188 85.25345308041415 631.6666870117188 87.05767267163172 Q 627.6041870117188 84.71218720304887 626.6666870117188 78.39741863378734 Q 625.7291870117188 84.71218720304887 621.6666870117188 87.05767267163172 Z" fill-opacity="1" clip-path="url(#vthXQxPUAohu)" stroke-opacity="1" stroke-linejoin="bevel" stroke-miterlimit="10"/><path fill="rgb(252,79,48)" stroke="rgb(252,79,48)" paint-order="fill" d="M 118.33333587646484 111.23848724365234 L 121.66666920979817 106.23848724365234 L 118.33333587646484 101.23848724365234 L 115.00000254313152 106.23848724365234 Z" fill-opacity="1" clip-path="url(#apKWfPoaTTNB)" stroke-opacity="1" stroke-linejoin="bevel" stroke-miterlimit="10"/><path fill="rgb(252,79,48)" stroke="rgb(252,79,48)" paint-order="fill" d="M 423.3333435058594 229.8343963623047 L 426.6666768391927 224.8343963623047 L 423.3333435058594 219.8343963623047 L 420.00001017252606 224.8343963623047 Z" fill-opacity="1" clip-path="url(#apKWfPoaTTNB)" stroke-opacity="1" stroke-linejoin="bevel" stroke-miterlimit="10"/><path fill="rgb(252,79,48)" stroke="rgb(252,79,48)" paint-order="fill" d="M 626.6666870117188 258.0386962890625 L 630.0000203450521 253.0386962890625 L 626.6666870117188 248.0386962890625 L 623.3333536783854 253.0386962890625 Z" fill-opacity="1" clip-path="url(#apKWfPoaTTNB)" stroke-opacity="1" stroke-linejoin="bevel" stroke-miterlimit="10"/><path fill="none" stroke="none"/><path fill="rgb(229,174,56)" stroke="rgb(229,174,56)" paint-order="fill" d="M 120.20833587646484 205.37417602539062 L 120.20833587646484 202.24917602539062 L 123.33333587646484 202.24917602539062 L 123.33333587646484 198.49917602539062 L 120.20833587646484 198.49917602539062 L 120.20833587646484 195.37417602539062 L 116.45833587646484 195.37417602539062 L 116.45833587646484 198.49917602539062 L 113.33333587646484 198.49917602539062 L 113.33333587646484 202.24917602539062 L 116.45833587646484 202.24917602539062 L 116.45833587646484 205.37417602539062 Z" fill-opacity="1" clip-path="url(#pPzVVHJIQpgK)" stroke-opacity="1" stroke-linejoin="bevel" stroke-miterlimit="10"/><path fill="none" stroke="none"/><path fill="rgb(229,174,56)" stroke="rgb(229,174,56)" paint-order="fill" d="M 425.2083435058594 223.76083374023438 L 425.2083435058594 220.63583374023438 L 428.3333435058594 220.63583374023438 L 428.3333435058594 216.88583374023438 L 425.2083435058594 216.88583374023438 L 425.2083435058594 213.76083374023438 L 421.4583435058594 213.76083374023438 L 421.4583435058594 216.88583374023438 L 418.3333435058594 216.88583374023438 L 418.3333435058594 220.63583374023438 L 421.4583435058594 220.63583374023438 L 421.4583435058594 223.76083374023438 Z" fill-opacity="1" clip-path="url(#pPzVVHJIQpgK)" stroke-opacity="1" stroke-linejoin="bevel" stroke-miterlimit="10"/><path fill="none" stroke="none"/><path fill="rgb(229,174,56)" stroke="rgb(229,174,56)" paint-order="fill" d="M 628.5416870117188 221.0297088623047 L 628.5416870117188 217.9047088623047 L 631.6666870117188 217.9047088623047 L 631.6666870117188 214.1547088623047 L 628.5416870117188 214.1547088623047 L 628.5416870117188 211.0297088623047 L 624.7916870117188 211.0297088623047 L 624.7916870117188 214.1547088623047 L 621.6666870117188 214.1547088623047 L 621.6666870117188 217.9047088623047 L 624.7916870117188 217.9047088623047 L 624.7916870117188 221.0297088623047 Z" fill-opacity="1" clip-path="url(#pPzVVHJIQpgK)" stroke-opacity="1" stroke-linejoin="bevel" stroke-miterlimit="10"/><path fill="rgb(109,144,79)" stroke="rgb(109,144,79)" paint-order="fill" d="M 118.33333587646484 221.41897583007812 L 119.4559058179138 224.8738908582034 L 123.08861845794061 224.8738908582034 L 120.14969219647824 227.00914577382758 L 121.27226213792721 230.46406080195285 L 118.33333587646484 228.32880588632864 L 115.39440961500247 230.46406080195285 L 116.51697955645145 227.00914577382758 L 113.57805329498908 224.8738908582034 L 117.21076593501589 224.8738908582034 Z" fill-opacity="1" clip-path="url(#aHSknWfAzxxH)" stroke-opacity="1" stroke-linejoin="bevel" stroke-miterlimit="10"/><path fill="rgb(109,144,79)" stroke="rgb(109,144,79)" paint-order="fill" d="M 423.3333435058594 229.6280517578125 L 424.4559134473083 233.08296678593777 L 428.0886260873351 233.08296678593777 L 425.1496998258728 235.21822170156196 L 426.27226976732175 238.67313672968723 L 423.3333435058594 236.537881814063 L 420.394417244397 238.67313672968723 L 421.51698718584595 235.21822170156196 L 418.57806092438364 233.08296678593777 L 422.21077356441043 233.08296678593777 Z" fill-opacity="1" clip-path="url(#aHSknWfAzxxH)" stroke-opacity="1" stroke-linejoin="bevel" stroke-miterlimit="10"/><path fill="rgb(109,144,79)" stroke="rgb(109,144,79)" paint-order="fill" d="M 626.6666870117188 222.57102966308594 L 627.7892569531678 226.0259446912112 L 631.4219695931945 226.0259446912112 L 628.4830433317321 228.1611996068354 L 629.6056132731811 231.61611463496067 L 626.6666870117188 229.48085971933645 L 623.7277607502564 231.61611463496067 L 624.8503306917054 228.1611996068354 L 621.911404430243 226.0259446912112 L 625.5441170702697 226.0259446912112 Z" fill-opacity="1" clip-path="url(#aHSknWfAzxxH)" stroke-opacity="1" stroke-linejoin="bevel" stroke-miterlimit="10"/><path fill="rgb(139,139,139)" stroke="rgb(139,139,139)" paint-order="fill" d="M 113.33333587646484 237.6099569123544 Q 118.33333587646484 235.8057373211368 123.33333587646484 237.6099569123544 Q 119.27083587646484 235.26447144377153 118.33333587646484 228.94970287451 Q 117.39583587646484 235.26447144377153 113.33333587646484 237.6099569123544 Z" fill-opacity="1" clip-path="url(#MwfcaXTlTTyQ)" stroke-opacity="1" stroke-linejoin="bevel" stroke-miterlimit="10"/><path fill="rgb(139,139,139)" stroke="rgb(139,139,139)" paint-order="fill" d="M 418.3333435058594 241.0046102326669 Q 423.3333435058594 239.2003906414493 428.3333435058594 241.0046102326669 Q 424.2708435058594 238.65912476408403 423.3333435058594 232.3443561948225 Q 422.3958435058594 238.65912476408403 418.3333435058594 241.0046102326669 Z" fill-opacity="1" clip-path="url(#MwfcaXTlTTyQ)" stroke-opacity="1" stroke-linejoin="bevel" stroke-miterlimit="10"/><path fill="rgb(139,139,139)" stroke="rgb(139,139,139)" paint-order="fill" d="M 621.6666870117188 230.18373315747158 Q 626.6666870117188 228.379513566254 631.6666870117188 230.18373315747158 Q 627.6041870117188 227.8382476888887 626.6666870117188 221.52347911962718 Q 625.7291870117188 227.8382476888887 621.6666870117188 230.18373315747158 Z" fill-opacity="1" clip-path="url(#MwfcaXTlTTyQ)" stroke-opacity="1" stroke-linejoin="bevel" stroke-miterlimit="10"/><path fill="rgb(23,190,207)" stroke="rgb(23,190,207)" paint-order="fill" d="M 118.33333587646484 224.56138610839844 L 121.66666920979817 219.56138610839844 L 118.33333587646484 214.56138610839844 L 115.00000254313152 219.56138610839844 Z" fill-opacity="1" clip-path="url(#WmRLCPGKDXaa)" stroke-opacity="1" stroke-linejoin="bevel" stroke-miterlimit="10"/><path fill="rgb(23,190,207)" stroke="rgb(23,190,207)" paint-order="fill" d="M 423.3333435058594 232.3631591796875 L 426.6666768391927 227.3631591796875 L 423.3333435058594 222.3631591796875 L 420.00001017252606 227.3631591796875 Z" fill-opacity="1" clip-path="url(#WmRLCPGKDXaa)" stroke-opacity="1" stroke-linejoin="bevel" stroke-miterlimit="10"/><path fill="rgb(23,190,207)" stroke="rgb(23,190,207)" paint-order="fill" d="M 626.6666870117188 259.8333282470703 L 630.0000203450521 254.8333282470703 L 626.6666870117188 249.8333282470703 L 623.3333536783854 254.8333282470703 Z" fill-opacity="1" clip-path="url(#WmRLCPGKDXaa)" stroke-opacity="1" stroke-linejoin="bevel" stroke-miterlimit="10"/><path fill="none" stroke="none"/><path fill="rgb(148,103,189)" stroke="rgb(148,103,189)" paint-order="fill" d="M 120.20833587646484 221.323974609375 L 120.20833587646484 218.198974609375 L 123.33333587646484 218.198974609375 L 123.33333587646484 214.448974609375 L 120.20833587646484 214.448974609375 L 120.20833587646484 211.323974609375 L 116.45833587646484 211.323974609375 L 116.45833587646484 214.448974609375 L 113.33333587646484 214.448974609375 L 113.33333587646484 218.198974609375 L 116.45833587646484 218.198974609375 L 116.45833587646484 221.323974609375 Z" fill-opacity="1" clip-path="url(#OQTEvGLNFzOT)" stroke-opacity="1" stroke-linejoin="bevel" stroke-miterlimit="10"/><path fill="none" stroke="none"/><path fill="rgb(148,103,189)" stroke="rgb(148,103,189)" paint-order="fill" d="M 425.2083435058594 247.14810180664062 L 425.2083435058594 244.02310180664062 L 428.3333435058594 244.02310180664062 L 428.3333435058594 240.27310180664062 L 425.2083435058594 240.27310180664062 L 425.2083435058594 237.14810180664062 L 421.4583435058594 237.14810180664062 L 421.4583435058594 240.27310180664062 L 418.3333435058594 240.27310180664062 L 418.3333435058594 244.02310180664062 L 421.4583435058594 244.02310180664062 L 421.4583435058594 247.14810180664062 Z" fill-opacity="1" clip-path="url(#OQTEvGLNFzOT)" stroke-opacity="1" stroke-linejoin="bevel" stroke-miterlimit="10"/><path fill="none" stroke="none"/><path fill="rgb(148,103,189)" stroke="rgb(148,103,189)" paint-order="fill" d="M 628.5416870117188 259.07469177246094 L 628.5416870117188 255.94969177246094 L 631.6666870117188 255.94969177246094 L 631.6666870117188 252.19969177246094 L 628.5416870117188 252.19969177246094 L 628.5416870117188 249.07469177246094 L 624.7916870117188 249.07469177246094 L 624.7916870117188 252.19969177246094 L 621.6666870117188 252.19969177246094 L 621.6666870117188 255.94969177246094 L 624.7916870117188 255.94969177246094 L 624.7916870117188 259.07469177246094 Z" fill-opacity="1" clip-path="url(#OQTEvGLNFzOT)" stroke-opacity="1" stroke-linejoin="bevel" stroke-miterlimit="10"/><path fill="none" stroke="rgb(0,0,0)" paint-order="fill" d="M 67.5 275.5 L 677.5 275.5" stroke-opacity="1" stroke-linejoin="bevel" stroke-miterlimit="10"/><path fill="none" stroke="rgb(0,0,0)" paint-order="fill" d="M 118.5 281.5 L 118.5 273.5 M 220.5 281.5 L 220.5 273.5 M 321.5 281.5 L 321.5 273.5 M 423.5 281.5 L 423.5 273.5 M 525.5 281.5 L 525.5 273.5 M 626.5 281.5 L 626.5 273.5" stroke-opacity="1" stroke-linejoin="bevel" stroke-miterlimit="10"/><path fill="none" stroke="rgb(0,0,0)" paint-order="fill" d="M 98.5 279.5 L 98.5 275.5 M 77.5 279.5 L 77.5 275.5 M 118.5 279.5 L 118.5 275.5 M 138.5 279.5 L 138.5 275.5 M 159.5 279.5 L 159.5 275.5 M 179.5 279.5 L 179.5 275.5 M 199.5 279.5 L 199.5 275.5 M 220.5 279.5 L 220.5 275.5 M 240.5 279.5 L 240.5 275.5 M 260.5 279.5 L 260.5 275.5 M 281.5 279.5 L 281.5 275.5 M 301.5 279.5 L 301.5 275.5 M 321.5 279.5 L 321.5 275.5 M 342.5 279.5 L 342.5 275.5 M 362.5 279.5 L 362.5 275.5 M 382.5 279.5 L 382.5 275.5 M 403.5 279.5 L 403.5 275.5 M 423.5 279.5 L 423.5 275.5 M 443.5 279.5 L 443.5 275.5 M 464.5 279.5 L 464.5 275.5 M 484.5 279.5 L 484.5 275.5 M 504.5 279.5 L 504.5 275.5 M 525.5 279.5 L 525.5 275.5 M 545.5 279.5 L 545.5 275.5 M 565.5 279.5 L 565.5 275.5 M 586.5 279.5 L 586.5 275.5 M 606.5 279.5 L 606.5 275.5 M 626.5 279.5 L 626.5 275.5 M 647.5 279.5 L 647.5 275.5 M 667.5 279.5 L 667.5 275.5" stroke-opacity="1" stroke-linejoin="bevel" stroke-miterlimit="10"/><text fill="rgb(68,68,68)" stroke="none" font-family="helvetica" font-size="11px" font-style="normal" font-weight="normal" text-decoration="normal" x="105.83333587646484" y="293.8740234375" text-anchor="start" dominant-baseline="alphabetic" transform="matrix(1, 0, 0, 1, 0.5, 0.5)" fill-opacity="1">2012</text><text fill="none" stroke="rgb(0,0,0)" font-family="helvetica" font-size="11px" font-style="normal" font-weight="normal" text-decoration="normal" x="105.83333587646484" y="293.8740234375" text-anchor="start" dominant-baseline="alphabetic" transform="matrix(1, 0, 0, 1, 0.5, 0.5)" stroke-opacity="0" stroke-linejoin="bevel" stroke-miterlimit="10">2012</text><text fill="rgb(68,68,68)" stroke="none" font-family="helvetica" font-size="11px" font-style="normal" font-weight="normal" text-decoration="normal" x="207.5" y="293.8740234375" text-anchor="start" dominant-baseline="alphabetic" transform="matrix(1, 0, 0, 1, 0.5, 0.5)" fill-opacity="1">2013</text><text fill="none" stroke="rgb(0,0,0)" font-family="helvetica" font-size="11px" font-style="normal" font-weight="normal" text-decoration="normal" x="207.5" y="293.8740234375" text-anchor="start" dominant-baseline="alphabetic" transform="matrix(1, 0, 0, 1, 0.5, 0.5)" stroke-opacity="0" stroke-linejoin="bevel" stroke-miterlimit="10">2013</text><text fill="rgb(68,68,68)" stroke="none" font-family="helvetica" font-size="11px" font-style="normal" font-weight="normal" text-decoration="normal" x="309.1666564941406" y="293.8740234375" text-anchor="start" dominant-baseline="alphabetic" transform="matrix(1, 0, 0, 1, 0.5, 0.5)" fill-opacity="1">2014</text><text fill="none" stroke="rgb(0,0,0)" font-family="helvetica" font-size="11px" font-style="normal" font-weight="normal" text-decoration="normal" x="309.1666564941406" y="293.8740234375" text-anchor="start" dominant-baseline="alphabetic" transform="matrix(1, 0, 0, 1, 0.5, 0.5)" stroke-opacity="0" stroke-linejoin="bevel" stroke-miterlimit="10">2014</text><text fill="rgb(68,68,68)" stroke="none" font-family="helvetica" font-size="11px" font-style="normal" font-weight="normal" text-decoration="normal" x="410.8333435058594" y="293.8740234375" text-anchor="start" dominant-baseline="alphabetic" transform="matrix(1, 0, 0, 1, 0.5, 0.5)" fill-opacity="1">2015</text><text fill="none" stroke="rgb(0,0,0)" font-family="helvetica" font-size="11px" font-style="normal" font-weight="normal" text-decoration="normal" x="410.8333435058594" y="293.8740234375" text-anchor="start" dominant-baseline="alphabetic" transform="matrix(1, 0, 0, 1, 0.5, 0.5)" stroke-opacity="0" stroke-linejoin="bevel" stroke-miterlimit="10">2015</text><text fill="rgb(68,68,68)" stroke="none" font-family="helvetica" font-size="11px" font-style="normal" font-weight="normal" text-decoration="normal" x="512.5" y="293.8740234375" text-anchor="start" dominant-baseline="alphabetic" transform="matrix(1, 0, 0, 1, 0.5, 0.5)" fill-opacity="1">2016</text><text fill="none" stroke="rgb(0,0,0)" font-family="helvetica" font-size="11px" font-style="normal" font-weight="normal" text-decoration="normal" x="512.5" y="293.8740234375" text-anchor="start" dominant-baseline="alphabetic" transform="matrix(1, 0, 0, 1, 0.5, 0.5)" stroke-opacity="0" stroke-linejoin="bevel" stroke-miterlimit="10">2016</text><text fill="rgb(68,68,68)" stroke="none" font-family="helvetica" font-size="11px" font-style="normal" font-weight="normal" text-decoration="normal" x="614.1666870117188" y="293.8740234375" text-anchor="start" dominant-baseline="alphabetic" transform="matrix(1, 0, 0, 1, 0.5, 0.5)" fill-opacity="1">2017</text><text fill="none" stroke="rgb(0,0,0)" font-family="helvetica" font-size="11px" font-style="normal" font-weight="normal" text-decoration="normal" x="614.1666870117188" y="293.8740234375" text-anchor="start" dominant-baseline="alphabetic" transform="matrix(1, 0, 0, 1, 0.5, 0.5)" stroke-opacity="0" stroke-linejoin="bevel" stroke-miterlimit="10">2017</text><text fill="rgb(68,68,68)" stroke="none" font-family="helvetica" font-size="13px" font-style="italic" font-weight="normal" text-decoration="normal" x="365.5" y="313.8740234375" text-anchor="start" dominant-baseline="alphabetic" transform="matrix(1, 0, 0, 1, 0.5, 0.5)" fill-opacity="1">年</text><text fill="none" stroke="rgb(0,0,0)" font-family="helvetica" font-size="13px" font-style="italic" font-weight="normal" text-decoration="normal" x="365.5" y="313.8740234375" text-anchor="start" dominant-baseline="alphabetic" transform="matrix(1, 0, 0, 1, 0.5, 0.5)" stroke-opacity="0" stroke-linejoin="bevel" stroke-miterlimit="10">年</text><path fill="none" stroke="rgb(0,0,0)" paint-order="fill" d="M 67.5 275.5 L 67.5 27.5" stroke-opacity="1" stroke-linejoin="bevel" stroke-miterlimit="10"/><path fill="none" stroke="rgb(0,0,0)" paint-order="fill" d="M 61.5 254.5 L 69.5 254.5 M 61.5 216.5 L 69.5 216.5 M 61.5 178.5 L 69.5 178.5 M 61.5 140.5 L 69.5 140.5 M 61.5 101.5 L 69.5 101.5 M 61.5 63.5 L 69.5 63.5" stroke-opacity="1" stroke-linejoin="bevel" stroke-miterlimit="10"/><path fill="none" stroke="rgb(0,0,0)" paint-order="fill" d="M 63.5 262.5 L 67.5 262.5 M 63.5 270.5 L 67.5 270.5 M 63.5 254.5 L 67.5 254.5 M 63.5 247.5 L 67.5 247.5 M 63.5 239.5 L 67.5 239.5 M 63.5 231.5 L 67.5 231.5 M 63.5 224.5 L 67.5 224.5 M 63.5 216.5 L 67.5 216.5 M 63.5 208.5 L 67.5 208.5 M 63.5 201.5 L 67.5 201.5 M 63.5 193.5 L 67.5 193.5 M 63.5 185.5 L 67.5 185.5 M 63.5 178.5 L 67.5 178.5 M 63.5 170.5 L 67.5 170.5 M 63.5 163.5 L 67.5 163.5 M 63.5 155.5 L 67.5 155.5 M 63.5 147.5 L 67.5 147.5 M 63.5 140.5 L 67.5 140.5 M 63.5 132.5 L 67.5 132.5 M 63.5 124.5 L 67.5 124.5 M 63.5 117.5 L 67.5 117.5 M 63.5 109.5 L 67.5 109.5 M 63.5 101.5 L 67.5 101.5 M 63.5 94.5 L 67.5 94.5 M 63.5 86.5 L 67.5 86.5 M 63.5 78.5 L 67.5 78.5 M 63.5 71.5 L 67.5 71.5 M 63.5 63.5 L 67.5 63.5 M 63.5 55.5 L 67.5 55.5 M 63.5 48.5 L 67.5 48.5 M 63.5 40.5 L 67.5 40.5 M 63.5 32.5 L 67.5 32.5" stroke-opacity="1" stroke-linejoin="bevel" stroke-miterlimit="10"/><text fill="rgb(68,68,68)" stroke="none" font-family="helvetica" font-size="11px" font-style="normal" font-weight="normal" text-decoration="normal" x="50" y="258.2983703613281" text-anchor="start" dominant-baseline="alphabetic" transform="matrix(1, 0, 0, 1, 0.5, 0.5)" fill-opacity="1">0</text><text fill="none" stroke="rgb(0,0,0)" font-family="helvetica" font-size="11px" font-style="normal" font-weight="normal" text-decoration="normal" x="50" y="258.2983703613281" text-anchor="start" dominant-baseline="alphabetic" transform="matrix(1, 0, 0, 1, 0.5, 0.5)" stroke-opacity="0" stroke-linejoin="bevel" stroke-miterlimit="10">0</text><text fill="rgb(68,68,68)" stroke="none" font-family="helvetica" font-size="11px" font-style="normal" font-weight="normal" text-decoration="normal" x="44" y="220.0403289794922" text-anchor="start" dominant-baseline="alphabetic" transform="matrix(1, 0, 0, 1, 0.5, 0.5)" fill-opacity="1">10</text><text fill="none" stroke="rgb(0,0,0)" font-family="helvetica" font-size="11px" font-style="normal" font-weight="normal" text-decoration="normal" x="44" y="220.0403289794922" text-anchor="start" dominant-baseline="alphabetic" transform="matrix(1, 0, 0, 1, 0.5, 0.5)" stroke-opacity="0" stroke-linejoin="bevel" stroke-miterlimit="10">10</text><text fill="rgb(68,68,68)" stroke="none" font-family="helvetica" font-size="11px" font-style="normal" font-weight="normal" text-decoration="normal" x="44" y="181.7823028564453" text-anchor="start" dominant-baseline="alphabetic" transform="matrix(1, 0, 0, 1, 0.5, 0.5)" fill-opacity="1">20</text><text fill="none" stroke="rgb(0,0,0)" font-family="helvetica" font-size="11px" font-style="normal" font-weight="normal" text-decoration="normal" x="44" y="181.7823028564453" text-anchor="start" dominant-baseline="alphabetic" transform="matrix(1, 0, 0, 1, 0.5, 0.5)" stroke-opacity="0" stroke-linejoin="bevel" stroke-miterlimit="10">20</text><text fill="rgb(68,68,68)" stroke="none" font-family="helvetica" font-size="11px" font-style="normal" font-weight="normal" text-decoration="normal" x="44" y="143.52427673339844" text-anchor="start" dominant-baseline="alphabetic" transform="matrix(1, 0, 0, 1, 0.5, 0.5)" fill-opacity="1">30</text><text fill="none" stroke="rgb(0,0,0)" font-family="helvetica" font-size="11px" font-style="normal" font-weight="normal" text-decoration="normal" x="44" y="143.52427673339844" text-anchor="start" dominant-baseline="alphabetic" transform="matrix(1, 0, 0, 1, 0.5, 0.5)" stroke-opacity="0" stroke-linejoin="bevel" stroke-miterlimit="10">30</text><text fill="rgb(68,68,68)" stroke="none" font-family="helvetica" font-size="11px" font-style="normal" font-weight="normal" text-decoration="normal" x="44" y="105.26624298095703" text-anchor="start" dominant-baseline="alphabetic" transform="matrix(1, 0, 0, 1, 0.5, 0.5)" fill-opacity="1">40</text><text fill="none" stroke="rgb(0,0,0)" font-family="helvetica" font-size="11px" font-style="normal" font-weight="normal" text-decoration="normal" x="44" y="105.26624298095703" text-anchor="start" dominant-baseline="alphabetic" transform="matrix(1, 0, 0, 1, 0.5, 0.5)" stroke-opacity="0" stroke-linejoin="bevel" stroke-miterlimit="10">40</text><text fill="rgb(68,68,68)" stroke="none" font-family="helvetica" font-size="11px" font-style="normal" font-weight="normal" text-decoration="normal" x="44" y="67.00821685791016" text-anchor="start" dominant-baseline="alphabetic" transform="matrix(1, 0, 0, 1, 0.5, 0.5)" fill-opacity="1">50</text><text fill="none" stroke="rgb(0,0,0)" font-family="helvetica" font-size="11px" font-style="normal" font-weight="normal" text-decoration="normal" x="44" y="67.00821685791016" text-anchor="start" dominant-baseline="alphabetic" transform="matrix(1, 0, 0, 1, 0.5, 0.5)" stroke-opacity="0" stroke-linejoin="bevel" stroke-miterlimit="10">50</text><text fill="rgb(68,68,68)" stroke="none" font-family="helvetica" font-size="13px" font-style="italic" font-weight="normal" text-decoration="normal" x="3.5" y="130" text-anchor="start" dominant-baseline="alphabetic" transform="matrix(6.123233995736766e-17, -1, 1, 6.123233995736766e-17, -114.5, 187.5)" fill-opacity="1">碳排放强度</text><text fill="none" stroke="rgb(0,0,0)" font-family="helvetica" font-size="13px" font-style="italic" font-weight="normal" text-decoration="normal" x="3.5" y="130" text-anchor="start" dominant-baseline="alphabetic" transform="matrix(6.123233995736766e-17, -1, 1, 6.123233995736766e-17, -114.5, 187.5)" stroke-opacity="0" stroke-linejoin="bevel" stroke-miterlimit="10">碳排放强度</text><text fill="rgb(68,68,68)" stroke="none" font-family="helvetica" font-size="13px" font-style="italic" font-weight="normal" text-decoration="normal" x="-29" y="148" text-anchor="start" dominant-baseline="alphabetic" transform="matrix(6.123233995736766e-17, -1, 1, 6.123233995736766e-17, -114.5, 187.5)" fill-opacity="1">（千克／万元人民币）</text><text fill="none" stroke="rgb(0,0,0)" font-family="helvetica" font-size="13px" font-style="italic" font-weight="normal" text-decoration="normal" x="-29" y="148" text-anchor="start" dominant-baseline="alphabetic" transform="matrix(6.123233995736766e-17, -1, 1, 6.123233995736766e-17, -114.5, 187.5)" stroke-opacity="0" stroke-linejoin="bevel" stroke-miterlimit="10">（千克／万元人民币）</text><path fill="none" stroke="rgb(229,229,229)" paint-order="fill" d="M 677.5 97.5 L 800.5 97.5 L 800.5 275.5 L 677.5 275.5 L 677.5 97.5 Z" stroke-opacity="0.5019607843137255" stroke-linejoin="bevel" stroke-miterlimit="10"/><path fill="none" stroke="rgb(48,162,218)" paint-order="fill" d="M 687.5 117.5 L 707.5 117.5" stroke-opacity="1" stroke-linejoin="bevel" stroke-miterlimit="10" stroke-width="2" stroke-dasharray="2,4"/><path fill="rgb(48,162,218)" stroke="rgb(48,162,218)" paint-order="fill" d="M 693.5 119.8094010767585 Q 697.5 118.36602540378443 701.5 119.8094010767585 Q 698.25 117.93301270189222 697.5 112.88119784648299 Q 696.75 117.93301270189222 693.5 119.8094010767585 Z" fill-opacity="1" stroke-opacity="1" stroke-linejoin="bevel" stroke-miterlimit="10"/><text fill="rgb(68,68,68)" stroke="none" font-family="helvetica" font-size="13px" font-style="normal" font-weight="normal" text-decoration="normal" x="0" y="4.5" text-anchor="start" dominant-baseline="alphabetic" transform="matrix(1, 0, 0, 1, 712.5, 117.5)" fill-opacity="1">产供电热力</text><text fill="none" stroke="rgb(0,0,0)" font-family="helvetica" font-size="13px" font-style="normal" font-weight="normal" text-decoration="normal" x="0" y="4.5" text-anchor="start" dominant-baseline="alphabetic" transform="matrix(1, 0, 0, 1, 712.5, 117.5)" stroke-opacity="0" stroke-linejoin="bevel" stroke-miterlimit="10">产供电热力</text><path fill="none" stroke="rgb(252,79,48)" paint-order="fill" d="M 687.5 140.5 L 707.5 140.5" stroke-opacity="1" stroke-linejoin="bevel" stroke-miterlimit="10" stroke-width="2"/><path fill="rgb(252,79,48)" stroke="rgb(252,79,48)" paint-order="fill" d="M 697.5 144.5 L 700.1666666666666 140.5 L 697.5 136.5 L 694.8333333333334 140.5 Z" fill-opacity="1" stroke-opacity="1" stroke-linejoin="bevel" stroke-miterlimit="10"/><text fill="rgb(68,68,68)" stroke="none" font-family="helvetica" font-size="13px" font-style="normal" font-weight="normal" text-decoration="normal" x="0" y="4.5" text-anchor="start" dominant-baseline="alphabetic" transform="matrix(1, 0, 0, 1, 712.5, 140.5)" fill-opacity="1">修理金机设备</text><text fill="none" stroke="rgb(0,0,0)" font-family="helvetica" font-size="13px" font-style="normal" font-weight="normal" text-decoration="normal" x="0" y="4.5" text-anchor="start" dominant-baseline="alphabetic" transform="matrix(1, 0, 0, 1, 712.5, 140.5)" stroke-opacity="0" stroke-linejoin="bevel" stroke-miterlimit="10">修理金机设备</text><path fill="none" stroke="rgb(229,174,56)" paint-order="fill" d="M 687.5 163.5 L 707.5 163.5" stroke-opacity="1" stroke-linejoin="bevel" stroke-miterlimit="10" stroke-width="2" stroke-dasharray="6"/><path fill="none" stroke="none"/><path fill="rgb(229,174,56)" stroke="rgb(229,174,56)" paint-order="fill" d="M 699 167.5 L 699 165 L 701.5 165 L 701.5 162 L 699 162 L 699 159.5 L 696 159.5 L 696 162 L 693.5 162 L 693.5 165 L 696 165 L 696 167.5 Z" fill-opacity="1" stroke-opacity="1" stroke-linejoin="bevel" stroke-miterlimit="10"/><text fill="rgb(68,68,68)" stroke="none" font-family="helvetica" font-size="13px" font-style="normal" font-weight="normal" text-decoration="normal" x="0" y="4.5" text-anchor="start" dominant-baseline="alphabetic" transform="matrix(1, 0, 0, 1, 712.5, 163.5)" fill-opacity="1">制非金属</text><text fill="none" stroke="rgb(0,0,0)" font-family="helvetica" font-size="13px" font-style="normal" font-weight="normal" text-decoration="normal" x="0" y="4.5" text-anchor="start" dominant-baseline="alphabetic" transform="matrix(1, 0, 0, 1, 712.5, 163.5)" stroke-opacity="0" stroke-linejoin="bevel" stroke-miterlimit="10">制非金属</text><path fill="none" stroke="rgb(109,144,79)" paint-order="fill" d="M 687.5 186.5 L 707.5 186.5" stroke-opacity="1" stroke-linejoin="bevel" stroke-miterlimit="10" stroke-width="2" stroke-dasharray="2,4"/><path fill="rgb(109,144,79)" stroke="rgb(109,144,79)" paint-order="fill" d="M 697.5 182.5 L 698.3980559531592 185.2639320225002 L 701.3042260651806 185.2639320225002 L 698.9530850560108 186.97213595499957 L 699.8511410091699 189.7360679774998 L 697.5 188.02786404500043 L 695.1488589908301 189.7360679774998 L 696.0469149439892 186.97213595499957 L 693.6957739348194 185.2639320225002 L 696.6019440468408 185.2639320225002 Z" fill-opacity="1" stroke-opacity="1" stroke-linejoin="bevel" stroke-miterlimit="10"/><text fill="rgb(68,68,68)" stroke="none" font-family="helvetica" font-size="13px" font-style="normal" font-weight="normal" text-decoration="normal" x="0" y="4.5" text-anchor="start" dominant-baseline="alphabetic" transform="matrix(1, 0, 0, 1, 712.5, 186.5)" fill-opacity="1">加工金属冶炼</text><text fill="none" stroke="rgb(0,0,0)" font-family="helvetica" font-size="13px" font-style="normal" font-weight="normal" text-decoration="normal" x="0" y="4.5" text-anchor="start" dominant-baseline="alphabetic" transform="matrix(1, 0, 0, 1, 712.5, 186.5)" stroke-opacity="0" stroke-linejoin="bevel" stroke-miterlimit="10">加工金属冶炼</text><path fill="none" stroke="rgb(139,139,139)" paint-order="fill" d="M 687.5 209.5 L 707.5 209.5" stroke-opacity="1" stroke-linejoin="bevel" stroke-miterlimit="10" stroke-width="2"/><path fill="rgb(139,139,139)" stroke="rgb(139,139,139)" paint-order="fill" d="M 693.5 211.8094010767585 Q 697.5 210.36602540378445 701.5 211.8094010767585 Q 698.25 209.9330127018922 697.5 204.881197846483 Q 696.75 209.9330127018922 693.5 211.8094010767585 Z" fill-opacity="1" stroke-opacity="1" stroke-linejoin="bevel" stroke-miterlimit="10"/><text fill="rgb(68,68,68)" stroke="none" font-family="helvetica" font-size="13px" font-style="normal" font-weight="normal" text-decoration="normal" x="0" y="4.5" text-anchor="start" dominant-baseline="alphabetic" transform="matrix(1, 0, 0, 1, 712.5, 209.5)" fill-opacity="1">运输仓储邮政</text><text fill="none" stroke="rgb(0,0,0)" font-family="helvetica" font-size="13px" font-style="normal" font-weight="normal" text-decoration="normal" x="0" y="4.5" text-anchor="start" dominant-baseline="alphabetic" transform="matrix(1, 0, 0, 1, 712.5, 209.5)" stroke-opacity="0" stroke-linejoin="bevel" stroke-miterlimit="10">运输仓储邮政</text><path fill="none" stroke="rgb(23,190,207)" paint-order="fill" d="M 687.5 232.5 L 707.5 232.5" stroke-opacity="1" stroke-linejoin="bevel" stroke-miterlimit="10" stroke-width="2" stroke-dasharray="6"/><path fill="rgb(23,190,207)" stroke="rgb(23,190,207)" paint-order="fill" d="M 697.5 236.5 L 700.1666666666666 232.5 L 697.5 228.5 L 694.8333333333334 232.5 Z" fill-opacity="1" stroke-opacity="1" stroke-linejoin="bevel" stroke-miterlimit="10"/><text fill="rgb(68,68,68)" stroke="none" font-family="helvetica" font-size="13px" font-style="normal" font-weight="normal" text-decoration="normal" x="0" y="4.5" text-anchor="start" dominant-baseline="alphabetic" transform="matrix(1, 0, 0, 1, 712.5, 232.5)" fill-opacity="1">信通软件技术</text><text fill="none" stroke="rgb(0,0,0)" font-family="helvetica" font-size="13px" font-style="normal" font-weight="normal" text-decoration="normal" x="0" y="4.5" text-anchor="start" dominant-baseline="alphabetic" transform="matrix(1, 0, 0, 1, 712.5, 232.5)" stroke-opacity="0" stroke-linejoin="bevel" stroke-miterlimit="10">信通软件技术</text><path fill="none" stroke="rgb(148,103,189)" paint-order="fill" d="M 687.5 255.5 L 707.5 255.5" stroke-opacity="1" stroke-linejoin="bevel" stroke-miterlimit="10" stroke-width="2" stroke-dasharray="2,4"/><path fill="none" stroke="none"/><path fill="rgb(148,103,189)" stroke="rgb(148,103,189)" paint-order="fill" d="M 699 259.5 L 699 257 L 701.5 257 L 701.5 254 L 699 254 L 699 251.5 L 696 251.5 L 696 254 L 693.5 254 L 693.5 257 L 696 257 L 696 259.5 Z" fill-opacity="1" stroke-opacity="1" stroke-linejoin="bevel" stroke-miterlimit="10"/><text fill="rgb(68,68,68)" stroke="none" font-family="helvetica" font-size="13px" font-style="normal" font-weight="normal" text-decoration="normal" x="0" y="4.5" text-anchor="start" dominant-baseline="alphabetic" transform="matrix(1, 0, 0, 1, 712.5, 255.5)" fill-opacity="1">制造其他</text><text fill="none" stroke="rgb(0,0,0)" font-family="helvetica" font-size="13px" font-style="normal" font-weight="normal" text-decoration="normal" x="0" y="4.5" text-anchor="start" dominant-baseline="alphabetic" transform="matrix(1, 0, 0, 1, 712.5, 255.5)" stroke-opacity="0" stroke-linejoin="bevel" stroke-miterlimit="10">制造其他</text><text fill="rgb(68,68,68)" stroke="none" font-family="helvetica" font-size="13px" font-style="normal" font-weight="bold" text-decoration="normal" x="67" y="19" text-anchor="start" dominant-baseline="alphabetic" transform="matrix(1, 0, 0, 1, 0.5, 0.5)" fill-opacity="1">广东碳排放强度前7行业</text><text fill="none" stroke="rgb(0,0,0)" font-family="helvetica" font-size="13px" font-style="normal" font-weight="bold" text-decoration="normal" x="67" y="19" text-anchor="start" dominant-baseline="alphabetic" transform="matrix(1, 0, 0, 1, 0.5, 0.5)" stroke-opacity="0" stroke-miterlimit="10" stroke-dasharray="">广东碳排放强度前7行业</text></svg>