<svg version="1.1" xmlns="http://www.w3.org/2000/svg" width="850" height="320"><defs><clipPath id="EuKPnMbMhACJ"><path fill="none" stroke="none" d="M 73.5 27.5 L 677.5 27.5 L 677.5 275.5 L 73.5 275.5 L 73.5 27.5 Z"/></clipPath><clipPath id="gBLMocCkETJz"><path fill="none" stroke="none" d="M 73.5 27.5 L 677.5 27.5 L 677.5 275.5 L 73.5 275.5 L 73.5 27.5 Z"/></clipPath><clipPath id="PmTLvTlRmpcJ"><path fill="none" stroke="none" d="M 73.5 27.5 L 677.5 27.5 L 677.5 275.5 L 73.5 275.5 L 73.5 27.5 Z"/></clipPath><clipPath id="KlfhWteMXPrN"><path fill="none" stroke="none" d="M 73.5 27.5 L 677.5 27.5 L 677.5 275.5 L 73.5 275.5 L 73.5 27.5 Z"/></clipPath><clipPath id="imkAsLhTFhWL"><path fill="none" stroke="none" d="M 73.5 27.5 L 677.5 27.5 L 677.5 275.5 L 73.5 275.5 L 73.5 27.5 Z"/></clipPath><clipPath id="ronkTFnGrvwe"><path fill="none" stroke="none" d="M 73.5 27.5 L 677.5 27.5 L 677.5 275.5 L 73.5 275.5 L 73.5 27.5 Z"/></clipPath><clipPath id="QRHmdqNTPPkQ"><path fill="none" stroke="none" d="M 73.5 27.5 L 677.5 27.5 L 677.5 275.5 L 73.5 275.5 L 73.5 27.5 Z"/></clipPath><clipPath id="yyGhvUeDNepc"><path fill="none" stroke="none" d="M 73.5 27.5 L 677.5 27.5 L 677.5 275.5 L 73.5 275.5 L 73.5 27.5 Z"/></clipPath><clipPath id="sesTARLFAIRg"><path fill="none" stroke="none" d="M 73.5 27.5 L 677.5 27.5 L 677.5 275.5 L 73.5 275.5 L 73.5 27.5 Z"/></clipPath><clipPath id="CzTTUlKmFtmO"><path fill="none" stroke="none" d="M 73.5 27.5 L 677.5 27.5 L 677.5 275.5 L 73.5 275.5 L 73.5 27.5 Z"/></clipPath><clipPath id="rUKMdVlilcEl"><path fill="none" stroke="none" d="M 73.5 27.5 L 677.5 27.5 L 677.5 275.5 L 73.5 275.5 L 73.5 27.5 Z"/></clipPath><clipPath id="hDsmGNfqddUv"><path fill="none" stroke="none" d="M 73.5 27.5 L 677.5 27.5 L 677.5 275.5 L 73.5 275.5 L 73.5 27.5 Z"/></clipPath><clipPath id="HVMTXpsmVTyH"><path fill="none" stroke="none" d="M 73.5 27.5 L 677.5 27.5 L 677.5 275.5 L 73.5 275.5 L 73.5 27.5 Z"/></clipPath><clipPath id="XTgTMtvVkyiI"><path fill="none" stroke="none" d="M 73.5 27.5 L 677.5 27.5 L 677.5 275.5 L 73.5 275.5 L 73.5 27.5 Z"/></clipPath><clipPath id="nvUapwPMhePL"><path fill="none" stroke="none" d="M 73.5 27.5 L 677.5 27.5 L 677.5 275.5 L 73.5 275.5 L 73.5 27.5 Z"/></clipPath><clipPath id="AigJzCpFrgmp"><path fill="none" stroke="none" d="M 73.5 27.5 L 677.5 27.5 L 677.5 275.5 L 73.5 275.5 L 73.5 27.5 Z"/></clipPath><clipPath id="bZAsHzdaCIGg"><path fill="none" stroke="none" d="M 73.5 27.5 L 677.5 27.5 L 677.5 275.5 L 73.5 275.5 L 73.5 27.5 Z"/></clipPath></defs><path fill="rgb(255,255,255)" stroke="none" paint-order="stroke" d="M 0.5 0.5 L 850.5 0.5 L 850.5 320.5 L 0.5 320.5 L 0.5 0.5 Z" fill-opacity="1"/><rect fill="#FFFFFF" stroke="none" x="73" y="27" width="604" height="248" transform="matrix(1, 0, 0, 1, 0.5, 0.5)"/><path fill="rgb(255,255,255)" stroke="none" paint-order="stroke" d="M 73.5 27.5 L 677.5 27.5 L 677.5 275.5 L 73.5 275.5 L 73.5 27.5 Z" fill-opacity="1"/><path fill="none" stroke="rgb(229,229,229)" paint-order="fill" d="M 73.5 27.5 L 677.5 27.5 L 677.5 275.5 L 73.5 275.5 L 73.5 27.5 Z" stroke-opacity="1" stroke-linejoin="bevel" stroke-miterlimit="10"/><path fill="none" stroke="rgb(48,162,218)" paint-order="fill" d="M 123.83333587646484 238.6193389892578 L 425.8333435058594 48.16666793823242 L 627.1666870117188 241.04702758789062" stroke-opacity="1" stroke-linejoin="bevel" stroke-miterlimit="10" stroke-width="2" stroke-dasharray="2,4" clip-path="url(#PmTLvTlRmpcJ)"/><path fill="none" stroke="rgb(252,79,48)" paint-order="fill" d="M 123.83333587646484 225.5033416748047 L 425.8333435058594 231.29165649414062 L 627.1666870117188 231.4453125" stroke-opacity="1" stroke-linejoin="bevel" stroke-miterlimit="10" stroke-width="2" clip-path="url(#KlfhWteMXPrN)"/><path fill="none" stroke="rgb(229,174,56)" paint-order="fill" d="M 123.83333587646484 245.4423065185547 L 425.8333435058594 245.4712677001953 L 627.1666870117188 247.80889892578125" stroke-opacity="1" stroke-linejoin="bevel" stroke-miterlimit="10" stroke-width="2" stroke-dasharray="6" clip-path="url(#imkAsLhTFhWL)"/><path fill="none" stroke="rgb(109,144,79)" paint-order="fill" d="M 123.83333587646484 251.29124450683594 L 425.8333435058594 252.72215270996094 L 627.1666870117188 254.8333282470703" stroke-opacity="1" stroke-linejoin="bevel" stroke-miterlimit="10" stroke-width="2" stroke-dasharray="2,4" clip-path="url(#ronkTFnGrvwe)"/><path fill="none" stroke="rgb(139,139,139)" paint-order="fill" d="M 123.83333587646484 253.010009765625 L 425.8333435058594 252.80569458007812 L 627.1666870117188 253.03392028808594" stroke-opacity="1" stroke-linejoin="bevel" stroke-miterlimit="10" stroke-width="2" clip-path="url(#QRHmdqNTPPkQ)"/><path fill="none" stroke="rgb(23,190,207)" paint-order="fill" d="M 123.83333587646484 252.9725341796875 L 425.8333435058594 253.1088104248047 L 627.1666870117188 252.88299560546875" stroke-opacity="1" stroke-linejoin="bevel" stroke-miterlimit="10" stroke-width="2" stroke-dasharray="6" clip-path="url(#yyGhvUeDNepc)"/><path fill="none" stroke="rgb(148,103,189)" paint-order="fill" d="M 123.83333587646484 252.969970703125 L 425.8333435058594 253.2027587890625 L 627.1666870117188 253.52920532226562" stroke-opacity="1" stroke-linejoin="bevel" stroke-miterlimit="10" stroke-width="2" stroke-dasharray="2,4" clip-path="url(#sesTARLFAIRg)"/><path fill="rgb(48,162,218)" stroke="rgb(48,162,218)" paint-order="fill" d="M 118.83333587646484 241.50609033520595 Q 123.83333587646484 239.70187074398837 128.83333587646484 241.50609033520595 Q 124.77083587646484 239.1606048666231 123.83333587646484 232.84583629736156 Q 122.89583587646484 239.1606048666231 118.83333587646484 241.50609033520595 Z" fill-opacity="1" clip-path="url(#CzTTUlKmFtmO)" stroke-opacity="1" stroke-linejoin="bevel" stroke-miterlimit="10"/><path fill="rgb(48,162,218)" stroke="rgb(48,162,218)" paint-order="fill" d="M 420.8333435058594 51.05341928418055 Q 425.8333435058594 49.24919969296297 430.8333435058594 51.05341928418055 Q 426.7708435058594 48.7079338155977 425.8333435058594 42.39316524633617 Q 424.8958435058594 48.7079338155977 420.8333435058594 51.05341928418055 Z" fill-opacity="1" clip-path="url(#CzTTUlKmFtmO)" stroke-opacity="1" stroke-linejoin="bevel" stroke-miterlimit="10"/><path fill="rgb(48,162,218)" stroke="rgb(48,162,218)" paint-order="fill" d="M 622.1666870117188 243.93377893383877 Q 627.1666870117188 242.12955934262118 632.1666870117188 243.93377893383877 Q 628.1041870117188 241.5882934652559 627.1666870117188 235.27352489599437 Q 626.2291870117188 241.5882934652559 622.1666870117188 243.93377893383877 Z" fill-opacity="1" clip-path="url(#CzTTUlKmFtmO)" stroke-opacity="1" stroke-linejoin="bevel" stroke-miterlimit="10"/><path fill="rgb(252,79,48)" stroke="rgb(252,79,48)" paint-order="fill" d="M 123.83333587646484 230.5033416748047 L 127.16666920979817 225.5033416748047 L 123.83333587646484 220.5033416748047 L 120.50000254313152 225.5033416748047 Z" fill-opacity="1" clip-path="url(#rUKMdVlilcEl)" stroke-opacity="1" stroke-linejoin="bevel" stroke-miterlimit="10"/><path fill="rgb(252,79,48)" stroke="rgb(252,79,48)" paint-order="fill" d="M 425.8333435058594 236.29165649414062 L 429.1666768391927 231.29165649414062 L 425.8333435058594 226.29165649414062 L 422.50001017252606 231.29165649414062 Z" fill-opacity="1" clip-path="url(#rUKMdVlilcEl)" stroke-opacity="1" stroke-linejoin="bevel" stroke-miterlimit="10"/><path fill="rgb(252,79,48)" stroke="rgb(252,79,48)" paint-order="fill" d="M 627.1666870117188 236.4453125 L 630.5000203450521 231.4453125 L 627.1666870117188 226.4453125 L 623.8333536783854 231.4453125 Z" fill-opacity="1" clip-path="url(#rUKMdVlilcEl)" stroke-opacity="1" stroke-linejoin="bevel" stroke-miterlimit="10"/><path fill="none" stroke="none"/><path fill="rgb(229,174,56)" stroke="rgb(229,174,56)" paint-order="fill" d="M 125.70833587646484 250.4423065185547 L 125.70833587646484 247.3173065185547 L 128.83333587646484 247.3173065185547 L 128.83333587646484 243.5673065185547 L 125.70833587646484 243.5673065185547 L 125.70833587646484 240.4423065185547 L 121.95833587646484 240.4423065185547 L 121.95833587646484 243.5673065185547 L 118.83333587646484 243.5673065185547 L 118.83333587646484 247.3173065185547 L 121.95833587646484 247.3173065185547 L 121.95833587646484 250.4423065185547 Z" fill-opacity="1" clip-path="url(#hDsmGNfqddUv)" stroke-opacity="1" stroke-linejoin="bevel" stroke-miterlimit="10"/><path fill="none" stroke="none"/><path fill="rgb(229,174,56)" stroke="rgb(229,174,56)" paint-order="fill" d="M 427.7083435058594 250.4712677001953 L 427.7083435058594 247.3462677001953 L 430.8333435058594 247.3462677001953 L 430.8333435058594 243.5962677001953 L 427.7083435058594 243.5962677001953 L 427.7083435058594 240.4712677001953 L 423.9583435058594 240.4712677001953 L 423.9583435058594 243.5962677001953 L 420.8333435058594 243.5962677001953 L 420.8333435058594 247.3462677001953 L 423.9583435058594 247.3462677001953 L 423.9583435058594 250.4712677001953 Z" fill-opacity="1" clip-path="url(#hDsmGNfqddUv)" stroke-opacity="1" stroke-linejoin="bevel" stroke-miterlimit="10"/><path fill="none" stroke="none"/><path fill="rgb(229,174,56)" stroke="rgb(229,174,56)" paint-order="fill" d="M 629.0416870117188 252.80889892578125 L 629.0416870117188 249.68389892578125 L 632.1666870117188 249.68389892578125 L 632.1666870117188 245.93389892578125 L 629.0416870117188 245.93389892578125 L 629.0416870117188 242.80889892578125 L 625.2916870117188 242.80889892578125 L 625.2916870117188 245.93389892578125 L 622.1666870117188 245.93389892578125 L 622.1666870117188 249.68389892578125 L 625.2916870117188 249.68389892578125 L 625.2916870117188 252.80889892578125 Z" fill-opacity="1" clip-path="url(#hDsmGNfqddUv)" stroke-opacity="1" stroke-linejoin="bevel" stroke-miterlimit="10"/><path fill="rgb(109,144,79)" stroke="rgb(109,144,79)" paint-order="fill" d="M 123.83333587646484 246.29124450683594 L 124.9559058179138 249.7461595349612 L 128.5886184579406 249.7461595349612 L 125.64969219647824 251.8814144505854 L 126.77226213792721 255.33632947871067 L 123.83333587646484 253.20107456308645 L 120.89440961500247 255.33632947871067 L 122.01697955645145 251.8814144505854 L 119.07805329498908 249.7461595349612 L 122.71076593501589 249.7461595349612 Z" fill-opacity="1" clip-path="url(#HVMTXpsmVTyH)" stroke-opacity="1" stroke-linejoin="bevel" stroke-miterlimit="10"/><path fill="rgb(109,144,79)" stroke="rgb(109,144,79)" paint-order="fill" d="M 425.8333435058594 247.72215270996094 L 426.9559134473083 251.1770677380862 L 430.5886260873351 251.1770677380862 L 427.6496998258728 253.3123226537104 L 428.77226976732175 256.7672376818357 L 425.8333435058594 254.63198276621145 L 422.894417244397 256.7672376818357 L 424.01698718584595 253.3123226537104 L 421.07806092438364 251.1770677380862 L 424.71077356441043 251.1770677380862 Z" fill-opacity="1" clip-path="url(#HVMTXpsmVTyH)" stroke-opacity="1" stroke-linejoin="bevel" stroke-miterlimit="10"/><path fill="rgb(109,144,79)" stroke="rgb(109,144,79)" paint-order="fill" d="M 627.1666870117188 249.8333282470703 L 628.2892569531678 253.28824327519558 L 631.9219695931945 253.28824327519558 L 628.9830433317321 255.42349819081977 L 630.1056132731811 258.87841321894507 L 627.1666870117188 256.74315830332085 L 624.2277607502564 258.87841321894507 L 625.3503306917054 255.42349819081977 L 622.411404430243 253.28824327519558 L 626.0441170702697 253.28824327519558 Z" fill-opacity="1" clip-path="url(#HVMTXpsmVTyH)" stroke-opacity="1" stroke-linejoin="bevel" stroke-miterlimit="10"/><path fill="rgb(139,139,139)" stroke="rgb(139,139,139)" paint-order="fill" d="M 118.83333587646484 255.89676111157314 Q 123.83333587646484 254.09254152035555 128.83333587646484 255.89676111157314 Q 124.77083587646484 253.55127564299028 123.83333587646484 247.23650707372875 Q 122.89583587646484 253.55127564299028 118.83333587646484 255.89676111157314 Z" fill-opacity="1" clip-path="url(#XTgTMtvVkyiI)" stroke-opacity="1" stroke-linejoin="bevel" stroke-miterlimit="10"/><path fill="rgb(139,139,139)" stroke="rgb(139,139,139)" paint-order="fill" d="M 420.8333435058594 255.69244592602627 Q 425.8333435058594 253.88822633480868 430.8333435058594 255.69244592602627 Q 426.7708435058594 253.3469604574434 425.8333435058594 247.03219188818187 Q 424.8958435058594 253.3469604574434 420.8333435058594 255.69244592602627 Z" fill-opacity="1" clip-path="url(#XTgTMtvVkyiI)" stroke-opacity="1" stroke-linejoin="bevel" stroke-miterlimit="10"/><path fill="rgb(139,139,139)" stroke="rgb(139,139,139)" paint-order="fill" d="M 622.1666870117188 255.92067163403408 Q 627.1666870117188 254.1164520428165 632.1666870117188 255.92067163403408 Q 628.1041870117188 253.5751861654512 627.1666870117188 247.26041759618968 Q 626.2291870117188 253.5751861654512 622.1666870117188 255.92067163403408 Z" fill-opacity="1" clip-path="url(#XTgTMtvVkyiI)" stroke-opacity="1" stroke-linejoin="bevel" stroke-miterlimit="10"/><path fill="rgb(23,190,207)" stroke="rgb(23,190,207)" paint-order="fill" d="M 123.83333587646484 257.9725341796875 L 127.16666920979817 252.9725341796875 L 123.83333587646484 247.9725341796875 L 120.50000254313152 252.9725341796875 Z" fill-opacity="1" clip-path="url(#nvUapwPMhePL)" stroke-opacity="1" stroke-linejoin="bevel" stroke-miterlimit="10"/><path fill="rgb(23,190,207)" stroke="rgb(23,190,207)" paint-order="fill" d="M 425.8333435058594 258.1088104248047 L 429.1666768391927 253.1088104248047 L 425.8333435058594 248.1088104248047 L 422.50001017252606 253.1088104248047 Z" fill-opacity="1" clip-path="url(#nvUapwPMhePL)" stroke-opacity="1" stroke-linejoin="bevel" stroke-miterlimit="10"/><path fill="rgb(23,190,207)" stroke="rgb(23,190,207)" paint-order="fill" d="M 627.1666870117188 257.88299560546875 L 630.5000203450521 252.88299560546875 L 627.1666870117188 247.88299560546875 L 623.8333536783854 252.88299560546875 Z" fill-opacity="1" clip-path="url(#nvUapwPMhePL)" stroke-opacity="1" stroke-linejoin="bevel" stroke-miterlimit="10"/><path fill="none" stroke="none"/><path fill="rgb(148,103,189)" stroke="rgb(148,103,189)" paint-order="fill" d="M 125.70833587646484 257.969970703125 L 125.70833587646484 254.844970703125 L 128.83333587646484 254.844970703125 L 128.83333587646484 251.094970703125 L 125.70833587646484 251.094970703125 L 125.70833587646484 247.969970703125 L 121.95833587646484 247.969970703125 L 121.95833587646484 251.094970703125 L 118.83333587646484 251.094970703125 L 118.83333587646484 254.844970703125 L 121.95833587646484 254.844970703125 L 121.95833587646484 257.969970703125 Z" fill-opacity="1" clip-path="url(#AigJzCpFrgmp)" stroke-opacity="1" stroke-linejoin="bevel" stroke-miterlimit="10"/><path fill="none" stroke="none"/><path fill="rgb(148,103,189)" stroke="rgb(148,103,189)" paint-order="fill" d="M 427.7083435058594 258.2027587890625 L 427.7083435058594 255.0777587890625 L 430.8333435058594 255.0777587890625 L 430.8333435058594 251.3277587890625 L 427.7083435058594 251.3277587890625 L 427.7083435058594 248.2027587890625 L 423.9583435058594 248.2027587890625 L 423.9583435058594 251.3277587890625 L 420.8333435058594 251.3277587890625 L 420.8333435058594 255.0777587890625 L 423.9583435058594 255.0777587890625 L 423.9583435058594 258.2027587890625 Z" fill-opacity="1" clip-path="url(#AigJzCpFrgmp)" stroke-opacity="1" stroke-linejoin="bevel" stroke-miterlimit="10"/><path fill="none" stroke="none"/><path fill="rgb(148,103,189)" stroke="rgb(148,103,189)" paint-order="fill" d="M 629.0416870117188 258.5292053222656 L 629.0416870117188 255.40420532226562 L 632.1666870117188 255.40420532226562 L 632.1666870117188 251.65420532226562 L 629.0416870117188 251.65420532226562 L 629.0416870117188 248.52920532226562 L 625.2916870117188 248.52920532226562 L 625.2916870117188 251.65420532226562 L 622.1666870117188 251.65420532226562 L 622.1666870117188 255.40420532226562 L 625.2916870117188 255.40420532226562 L 625.2916870117188 258.5292053222656 Z" fill-opacity="1" clip-path="url(#AigJzCpFrgmp)" stroke-opacity="1" stroke-linejoin="bevel" stroke-miterlimit="10"/><path fill="none" stroke="rgb(0,0,0)" paint-order="fill" d="M 73.5 275.5 L 677.5 275.5" stroke-opacity="1" stroke-linejoin="bevel" stroke-miterlimit="10"/><path fill="none" stroke="rgb(0,0,0)" paint-order="fill" d="M 123.5 281.5 L 123.5 273.5 M 224.5 281.5 L 224.5 273.5 M 325.5 281.5 L 325.5 273.5 M 425.5 281.5 L 425.5 273.5 M 526.5 281.5 L 526.5 273.5 M 627.5 281.5 L 627.5 273.5" stroke-opacity="1" stroke-linejoin="bevel" stroke-miterlimit="10"/><path fill="none" stroke="rgb(0,0,0)" paint-order="fill" d="M 103.5 279.5 L 103.5 275.5 M 83.5 279.5 L 83.5 275.5 M 123.5 279.5 L 123.5 275.5 M 143.5 279.5 L 143.5 275.5 M 164.5 279.5 L 164.5 275.5 M 184.5 279.5 L 184.5 275.5 M 204.5 279.5 L 204.5 275.5 M 224.5 279.5 L 224.5 275.5 M 244.5 279.5 L 244.5 275.5 M 264.5 279.5 L 264.5 275.5 M 284.5 279.5 L 284.5 275.5 M 305.5 279.5 L 305.5 275.5 M 325.5 279.5 L 325.5 275.5 M 345.5 279.5 L 345.5 275.5 M 365.5 279.5 L 365.5 275.5 M 385.5 279.5 L 385.5 275.5 M 405.5 279.5 L 405.5 275.5 M 425.5 279.5 L 425.5 275.5 M 445.5 279.5 L 445.5 275.5 M 466.5 279.5 L 466.5 275.5 M 486.5 279.5 L 486.5 275.5 M 506.5 279.5 L 506.5 275.5 M 526.5 279.5 L 526.5 275.5 M 546.5 279.5 L 546.5 275.5 M 566.5 279.5 L 566.5 275.5 M 586.5 279.5 L 586.5 275.5 M 607.5 279.5 L 607.5 275.5 M 627.5 279.5 L 627.5 275.5 M 647.5 279.5 L 647.5 275.5 M 667.5 279.5 L 667.5 275.5" stroke-opacity="1" stroke-linejoin="bevel" stroke-miterlimit="10"/><text fill="rgb(68,68,68)" stroke="none" font-family="helvetica" font-size="11px" font-style="normal" font-weight="normal" text-decoration="normal" x="111.33333587646484" y="293.8740234375" text-anchor="start" dominant-baseline="alphabetic" transform="matrix(1, 0, 0, 1, 0.5, 0.5)" fill-opacity="1">2012</text><text fill="none" stroke="rgb(0,0,0)" font-family="helvetica" font-size="11px" font-style="normal" font-weight="normal" text-decoration="normal" x="111.33333587646484" y="293.8740234375" text-anchor="start" dominant-baseline="alphabetic" transform="matrix(1, 0, 0, 1, 0.5, 0.5)" stroke-opacity="0" stroke-linejoin="bevel" stroke-miterlimit="10">2012</text><text fill="rgb(68,68,68)" stroke="none" font-family="helvetica" font-size="11px" font-style="normal" font-weight="normal" text-decoration="normal" x="212" y="293.8740234375" text-anchor="start" dominant-baseline="alphabetic" transform="matrix(1, 0, 0, 1, 0.5, 0.5)" fill-opacity="1">2013</text><text fill="none" stroke="rgb(0,0,0)" font-family="helvetica" font-size="11px" font-style="normal" font-weight="normal" text-decoration="normal" x="212" y="293.8740234375" text-anchor="start" dominant-baseline="alphabetic" transform="matrix(1, 0, 0, 1, 0.5, 0.5)" stroke-opacity="0" stroke-linejoin="bevel" stroke-miterlimit="10">2013</text><text fill="rgb(68,68,68)" stroke="none" font-family="helvetica" font-size="11px" font-style="normal" font-weight="normal" text-decoration="normal" x="312.6666564941406" y="293.8740234375" text-anchor="start" dominant-baseline="alphabetic" transform="matrix(1, 0, 0, 1, 0.5, 0.5)" fill-opacity="1">2014</text><text fill="none" stroke="rgb(0,0,0)" font-family="helvetica" font-size="11px" font-style="normal" font-weight="normal" text-decoration="normal" x="312.6666564941406" y="293.8740234375" text-anchor="start" dominant-baseline="alphabetic" transform="matrix(1, 0, 0, 1, 0.5, 0.5)" stroke-opacity="0" stroke-linejoin="bevel" stroke-miterlimit="10">2014</text><text fill="rgb(68,68,68)" stroke="none" font-family="helvetica" font-size="11px" font-style="normal" font-weight="normal" text-decoration="normal" x="413.3333435058594" y="293.8740234375" text-anchor="start" dominant-baseline="alphabetic" transform="matrix(1, 0, 0, 1, 0.5, 0.5)" fill-opacity="1">2015</text><text fill="none" stroke="rgb(0,0,0)" font-family="helvetica" font-size="11px" font-style="normal" font-weight="normal" text-decoration="normal" x="413.3333435058594" y="293.8740234375" text-anchor="start" dominant-baseline="alphabetic" transform="matrix(1, 0, 0, 1, 0.5, 0.5)" stroke-opacity="0" stroke-linejoin="bevel" stroke-miterlimit="10">2015</text><text fill="rgb(68,68,68)" stroke="none" font-family="helvetica" font-size="11px" font-style="normal" font-weight="normal" text-decoration="normal" x="514" y="293.8740234375" text-anchor="start" dominant-baseline="alphabetic" transform="matrix(1, 0, 0, 1, 0.5, 0.5)" fill-opacity="1">2016</text><text fill="none" stroke="rgb(0,0,0)" font-family="helvetica" font-size="11px" font-style="normal" font-weight="normal" text-decoration="normal" x="514" y="293.8740234375" text-anchor="start" dominant-baseline="alphabetic" transform="matrix(1, 0, 0, 1, 0.5, 0.5)" stroke-opacity="0" stroke-linejoin="bevel" stroke-miterlimit="10">2016</text><text fill="rgb(68,68,68)" stroke="none" font-family="helvetica" font-size="11px" font-style="normal" font-weight="normal" text-decoration="normal" x="614.6666870117188" y="293.8740234375" text-anchor="start" dominant-baseline="alphabetic" transform="matrix(1, 0, 0, 1, 0.5, 0.5)" fill-opacity="1">2017</text><text fill="none" stroke="rgb(0,0,0)" font-family="helvetica" font-size="11px" font-style="normal" font-weight="normal" text-decoration="normal" x="614.6666870117188" y="293.8740234375" text-anchor="start" dominant-baseline="alphabetic" transform="matrix(1, 0, 0, 1, 0.5, 0.5)" stroke-opacity="0" stroke-linejoin="bevel" stroke-miterlimit="10">2017</text><text fill="rgb(68,68,68)" stroke="none" font-family="helvetica" font-size="13px" font-style="italic" font-weight="normal" text-decoration="normal" x="368.5" y="313.8740234375" text-anchor="start" dominant-baseline="alphabetic" transform="matrix(1, 0, 0, 1, 0.5, 0.5)" fill-opacity="1">年</text><text fill="none" stroke="rgb(0,0,0)" font-family="helvetica" font-size="13px" font-style="italic" font-weight="normal" text-decoration="normal" x="368.5" y="313.8740234375" text-anchor="start" dominant-baseline="alphabetic" transform="matrix(1, 0, 0, 1, 0.5, 0.5)" stroke-opacity="0" stroke-linejoin="bevel" stroke-miterlimit="10">年</text><path fill="none" stroke="rgb(0,0,0)" paint-order="fill" d="M 73.5 275.5 L 73.5 27.5" stroke-opacity="1" stroke-linejoin="bevel" stroke-miterlimit="10"/><path fill="none" stroke="rgb(0,0,0)" paint-order="fill" d="M 67.5 254.5 L 75.5 254.5 M 67.5 208.5 L 75.5 208.5 M 67.5 162.5 L 75.5 162.5 M 67.5 115.5 L 75.5 115.5 M 67.5 69.5 L 75.5 69.5" stroke-opacity="1" stroke-linejoin="bevel" stroke-miterlimit="10"/><path fill="none" stroke="rgb(0,0,0)" paint-order="fill" d="M 69.5 264.5 L 73.5 264.5 M 69.5 273.5 L 73.5 273.5 M 69.5 254.5 L 73.5 254.5 M 69.5 245.5 L 73.5 245.5 M 69.5 236.5 L 73.5 236.5 M 69.5 227.5 L 73.5 227.5 M 69.5 217.5 L 73.5 217.5 M 69.5 208.5 L 73.5 208.5 M 69.5 199.5 L 73.5 199.5 M 69.5 190.5 L 73.5 190.5 M 69.5 180.5 L 73.5 180.5 M 69.5 171.5 L 73.5 171.5 M 69.5 162.5 L 73.5 162.5 M 69.5 153.5 L 73.5 153.5 M 69.5 143.5 L 73.5 143.5 M 69.5 134.5 L 73.5 134.5 M 69.5 125.5 L 73.5 125.5 M 69.5 115.5 L 73.5 115.5 M 69.5 106.5 L 73.5 106.5 M 69.5 97.5 L 73.5 97.5 M 69.5 88.5 L 73.5 88.5 M 69.5 78.5 L 73.5 78.5 M 69.5 69.5 L 73.5 69.5 M 69.5 60.5 L 73.5 60.5 M 69.5 51.5 L 73.5 51.5 M 69.5 41.5 L 73.5 41.5 M 69.5 32.5 L 73.5 32.5" stroke-opacity="1" stroke-linejoin="bevel" stroke-miterlimit="10"/><text fill="rgb(68,68,68)" stroke="none" font-family="helvetica" font-size="11px" font-style="normal" font-weight="normal" text-decoration="normal" x="56" y="258.27699279785156" text-anchor="start" dominant-baseline="alphabetic" transform="matrix(1, 0, 0, 1, 0.5, 0.5)" fill-opacity="1">0</text><text fill="none" stroke="rgb(0,0,0)" font-family="helvetica" font-size="11px" font-style="normal" font-weight="normal" text-decoration="normal" x="56" y="258.27699279785156" text-anchor="start" dominant-baseline="alphabetic" transform="matrix(1, 0, 0, 1, 0.5, 0.5)" stroke-opacity="0" stroke-linejoin="bevel" stroke-miterlimit="10">0</text><text fill="rgb(68,68,68)" stroke="none" font-family="helvetica" font-size="11px" font-style="normal" font-weight="normal" text-decoration="normal" x="44" y="211.9921112060547" text-anchor="start" dominant-baseline="alphabetic" transform="matrix(1, 0, 0, 1, 0.5, 0.5)" fill-opacity="1">100</text><text fill="none" stroke="rgb(0,0,0)" font-family="helvetica" font-size="11px" font-style="normal" font-weight="normal" text-decoration="normal" x="44" y="211.9921112060547" text-anchor="start" dominant-baseline="alphabetic" transform="matrix(1, 0, 0, 1, 0.5, 0.5)" stroke-opacity="0" stroke-linejoin="bevel" stroke-miterlimit="10">100</text><text fill="rgb(68,68,68)" stroke="none" font-family="helvetica" font-size="11px" font-style="normal" font-weight="normal" text-decoration="normal" x="44" y="165.70721435546875" text-anchor="start" dominant-baseline="alphabetic" transform="matrix(1, 0, 0, 1, 0.5, 0.5)" fill-opacity="1">200</text><text fill="none" stroke="rgb(0,0,0)" font-family="helvetica" font-size="11px" font-style="normal" font-weight="normal" text-decoration="normal" x="44" y="165.70721435546875" text-anchor="start" dominant-baseline="alphabetic" transform="matrix(1, 0, 0, 1, 0.5, 0.5)" stroke-opacity="0" stroke-linejoin="bevel" stroke-miterlimit="10">200</text><text fill="rgb(68,68,68)" stroke="none" font-family="helvetica" font-size="11px" font-style="normal" font-weight="normal" text-decoration="normal" x="44" y="119.42232513427734" text-anchor="start" dominant-baseline="alphabetic" transform="matrix(1, 0, 0, 1, 0.5, 0.5)" fill-opacity="1">300</text><text fill="none" stroke="rgb(0,0,0)" font-family="helvetica" font-size="11px" font-style="normal" font-weight="normal" text-decoration="normal" x="44" y="119.42232513427734" text-anchor="start" dominant-baseline="alphabetic" transform="matrix(1, 0, 0, 1, 0.5, 0.5)" stroke-opacity="0" stroke-linejoin="bevel" stroke-miterlimit="10">300</text><text fill="rgb(68,68,68)" stroke="none" font-family="helvetica" font-size="11px" font-style="normal" font-weight="normal" text-decoration="normal" x="44" y="73.13744354248047" text-anchor="start" dominant-baseline="alphabetic" transform="matrix(1, 0, 0, 1, 0.5, 0.5)" fill-opacity="1">400</text><text fill="none" stroke="rgb(0,0,0)" font-family="helvetica" font-size="11px" font-style="normal" font-weight="normal" text-decoration="normal" x="44" y="73.13744354248047" text-anchor="start" dominant-baseline="alphabetic" transform="matrix(1, 0, 0, 1, 0.5, 0.5)" stroke-opacity="0" stroke-linejoin="bevel" stroke-miterlimit="10">400</text><text fill="rgb(68,68,68)" stroke="none" font-family="helvetica" font-size="13px" font-style="italic" font-weight="normal" text-decoration="normal" x="3.5" y="130" text-anchor="start" dominant-baseline="alphabetic" transform="matrix(6.123233995736766e-17, -1, 1, 6.123233995736766e-17, -114.5, 187.5)" fill-opacity="1">碳排放强度</text><text fill="none" stroke="rgb(0,0,0)" font-family="helvetica" font-size="13px" font-style="italic" font-weight="normal" text-decoration="normal" x="3.5" y="130" text-anchor="start" dominant-baseline="alphabetic" transform="matrix(6.123233995736766e-17, -1, 1, 6.123233995736766e-17, -114.5, 187.5)" stroke-opacity="0" stroke-linejoin="bevel" stroke-miterlimit="10">碳排放强度</text><text fill="rgb(68,68,68)" stroke="none" font-family="helvetica" font-size="13px" font-style="italic" font-weight="normal" text-decoration="normal" x="-29" y="148" text-anchor="start" dominant-baseline="alphabetic" transform="matrix(6.123233995736766e-17, -1, 1, 6.123233995736766e-17, -114.5, 187.5)" fill-opacity="1">（千克／万元人民币）</text><text fill="none" stroke="rgb(0,0,0)" font-family="helvetica" font-size="13px" font-style="italic" font-weight="normal" text-decoration="normal" x="-29" y="148" text-anchor="start" dominant-baseline="alphabetic" transform="matrix(6.123233995736766e-17, -1, 1, 6.123233995736766e-17, -114.5, 187.5)" stroke-opacity="0" stroke-linejoin="bevel" stroke-miterlimit="10">（千克／万元人民币）</text><path fill="none" stroke="rgb(229,229,229)" paint-order="fill" d="M 677.5 97.5 L 800.5 97.5 L 800.5 275.5 L 677.5 275.5 L 677.5 97.5 Z" stroke-opacity="0.5019607843137255" stroke-linejoin="bevel" stroke-miterlimit="10"/><path fill="none" stroke="rgb(48,162,218)" paint-order="fill" d="M 687.5 117.5 L 707.5 117.5" stroke-opacity="1" stroke-linejoin="bevel" stroke-miterlimit="10" stroke-width="2" stroke-dasharray="2,4"/><path fill="rgb(48,162,218)" stroke="rgb(48,162,218)" paint-order="fill" d="M 693.5 119.8094010767585 Q 697.5 118.36602540378443 701.5 119.8094010767585 Q 698.25 117.93301270189222 697.5 112.88119784648299 Q 696.75 117.93301270189222 693.5 119.8094010767585 Z" fill-opacity="1" stroke-opacity="1" stroke-linejoin="bevel" stroke-miterlimit="10"/><text fill="rgb(68,68,68)" stroke="none" font-family="helvetica" font-size="13px" font-style="normal" font-weight="normal" text-decoration="normal" x="0" y="4.5" text-anchor="start" dominant-baseline="alphabetic" transform="matrix(1, 0, 0, 1, 712.5, 117.5)" fill-opacity="1">采选煤炭</text><text fill="none" stroke="rgb(0,0,0)" font-family="helvetica" font-size="13px" font-style="normal" font-weight="normal" text-decoration="normal" x="0" y="4.5" text-anchor="start" dominant-baseline="alphabetic" transform="matrix(1, 0, 0, 1, 712.5, 117.5)" stroke-opacity="0" stroke-linejoin="bevel" stroke-miterlimit="10">采选煤炭</text><path fill="none" stroke="rgb(252,79,48)" paint-order="fill" d="M 687.5 140.5 L 707.5 140.5" stroke-opacity="1" stroke-linejoin="bevel" stroke-miterlimit="10" stroke-width="2"/><path fill="rgb(252,79,48)" stroke="rgb(252,79,48)" paint-order="fill" d="M 697.5 144.5 L 700.1666666666666 140.5 L 697.5 136.5 L 694.8333333333334 140.5 Z" fill-opacity="1" stroke-opacity="1" stroke-linejoin="bevel" stroke-miterlimit="10"/><text fill="rgb(68,68,68)" stroke="none" font-family="helvetica" font-size="13px" font-style="normal" font-weight="normal" text-decoration="normal" x="0" y="4.5" text-anchor="start" dominant-baseline="alphabetic" transform="matrix(1, 0, 0, 1, 712.5, 140.5)" fill-opacity="1">产供电热力</text><text fill="none" stroke="rgb(0,0,0)" font-family="helvetica" font-size="13px" font-style="normal" font-weight="normal" text-decoration="normal" x="0" y="4.5" text-anchor="start" dominant-baseline="alphabetic" transform="matrix(1, 0, 0, 1, 712.5, 140.5)" stroke-opacity="0" stroke-linejoin="bevel" stroke-miterlimit="10">产供电热力</text><path fill="none" stroke="rgb(229,174,56)" paint-order="fill" d="M 687.5 163.5 L 707.5 163.5" stroke-opacity="1" stroke-linejoin="bevel" stroke-miterlimit="10" stroke-width="2" stroke-dasharray="6"/><path fill="none" stroke="none"/><path fill="rgb(229,174,56)" stroke="rgb(229,174,56)" paint-order="fill" d="M 699 167.5 L 699 165 L 701.5 165 L 701.5 162 L 699 162 L 699 159.5 L 696 159.5 L 696 162 L 693.5 162 L 693.5 165 L 696 165 L 696 167.5 Z" fill-opacity="1" stroke-opacity="1" stroke-linejoin="bevel" stroke-miterlimit="10"/><text fill="rgb(68,68,68)" stroke="none" font-family="helvetica" font-size="13px" font-style="normal" font-weight="normal" text-decoration="normal" x="0" y="4.5" text-anchor="start" dominant-baseline="alphabetic" transform="matrix(1, 0, 0, 1, 712.5, 163.5)" fill-opacity="1">制非金属</text><text fill="none" stroke="rgb(0,0,0)" font-family="helvetica" font-size="13px" font-style="normal" font-weight="normal" text-decoration="normal" x="0" y="4.5" text-anchor="start" dominant-baseline="alphabetic" transform="matrix(1, 0, 0, 1, 712.5, 163.5)" stroke-opacity="0" stroke-linejoin="bevel" stroke-miterlimit="10">制非金属</text><path fill="none" stroke="rgb(109,144,79)" paint-order="fill" d="M 687.5 186.5 L 707.5 186.5" stroke-opacity="1" stroke-linejoin="bevel" stroke-miterlimit="10" stroke-width="2" stroke-dasharray="2,4"/><path fill="rgb(109,144,79)" stroke="rgb(109,144,79)" paint-order="fill" d="M 697.5 182.5 L 698.3980559531592 185.2639320225002 L 701.3042260651806 185.2639320225002 L 698.9530850560108 186.97213595499957 L 699.8511410091699 189.7360679774998 L 697.5 188.02786404500043 L 695.1488589908301 189.7360679774998 L 696.0469149439892 186.97213595499957 L 693.6957739348194 185.2639320225002 L 696.6019440468408 185.2639320225002 Z" fill-opacity="1" stroke-opacity="1" stroke-linejoin="bevel" stroke-miterlimit="10"/><text fill="rgb(68,68,68)" stroke="none" font-family="helvetica" font-size="13px" font-style="normal" font-weight="normal" text-decoration="normal" x="0" y="4.5" text-anchor="start" dominant-baseline="alphabetic" transform="matrix(1, 0, 0, 1, 712.5, 186.5)" fill-opacity="1">信通软件技术</text><text fill="none" stroke="rgb(0,0,0)" font-family="helvetica" font-size="13px" font-style="normal" font-weight="normal" text-decoration="normal" x="0" y="4.5" text-anchor="start" dominant-baseline="alphabetic" transform="matrix(1, 0, 0, 1, 712.5, 186.5)" stroke-opacity="0" stroke-linejoin="bevel" stroke-miterlimit="10">信通软件技术</text><path fill="none" stroke="rgb(139,139,139)" paint-order="fill" d="M 687.5 209.5 L 707.5 209.5" stroke-opacity="1" stroke-linejoin="bevel" stroke-miterlimit="10" stroke-width="2"/><path fill="rgb(139,139,139)" stroke="rgb(139,139,139)" paint-order="fill" d="M 693.5 211.8094010767585 Q 697.5 210.36602540378445 701.5 211.8094010767585 Q 698.25 209.9330127018922 697.5 204.881197846483 Q 696.75 209.9330127018922 693.5 211.8094010767585 Z" fill-opacity="1" stroke-opacity="1" stroke-linejoin="bevel" stroke-miterlimit="10"/><text fill="rgb(68,68,68)" stroke="none" font-family="helvetica" font-size="13px" font-style="normal" font-weight="normal" text-decoration="normal" x="0" y="4.5" text-anchor="start" dominant-baseline="alphabetic" transform="matrix(1, 0, 0, 1, 712.5, 209.5)" fill-opacity="1">加工金属冶炼</text><text fill="none" stroke="rgb(0,0,0)" font-family="helvetica" font-size="13px" font-style="normal" font-weight="normal" text-decoration="normal" x="0" y="4.5" text-anchor="start" dominant-baseline="alphabetic" transform="matrix(1, 0, 0, 1, 712.5, 209.5)" stroke-opacity="0" stroke-linejoin="bevel" stroke-miterlimit="10">加工金属冶炼</text><path fill="none" stroke="rgb(23,190,207)" paint-order="fill" d="M 687.5 232.5 L 707.5 232.5" stroke-opacity="1" stroke-linejoin="bevel" stroke-miterlimit="10" stroke-width="2" stroke-dasharray="6"/><path fill="rgb(23,190,207)" stroke="rgb(23,190,207)" paint-order="fill" d="M 697.5 236.5 L 700.1666666666666 232.5 L 697.5 228.5 L 694.8333333333334 232.5 Z" fill-opacity="1" stroke-opacity="1" stroke-linejoin="bevel" stroke-miterlimit="10"/><text fill="rgb(68,68,68)" stroke="none" font-family="helvetica" font-size="13px" font-style="normal" font-weight="normal" text-decoration="normal" x="0" y="4.5" text-anchor="start" dominant-baseline="alphabetic" transform="matrix(1, 0, 0, 1, 712.5, 232.5)" fill-opacity="1">运输仓储邮政</text><text fill="none" stroke="rgb(0,0,0)" font-family="helvetica" font-size="13px" font-style="normal" font-weight="normal" text-decoration="normal" x="0" y="4.5" text-anchor="start" dominant-baseline="alphabetic" transform="matrix(1, 0, 0, 1, 712.5, 232.5)" stroke-opacity="0" stroke-linejoin="bevel" stroke-miterlimit="10">运输仓储邮政</text><path fill="none" stroke="rgb(148,103,189)" paint-order="fill" d="M 687.5 255.5 L 707.5 255.5" stroke-opacity="1" stroke-linejoin="bevel" stroke-miterlimit="10" stroke-width="2" stroke-dasharray="2,4"/><path fill="none" stroke="none"/><path fill="rgb(148,103,189)" stroke="rgb(148,103,189)" paint-order="fill" d="M 699 259.5 L 699 257 L 701.5 257 L 701.5 254 L 699 254 L 699 251.5 L 696 251.5 L 696 254 L 693.5 254 L 693.5 257 L 696 257 L 696 259.5 Z" fill-opacity="1" stroke-opacity="1" stroke-linejoin="bevel" stroke-miterlimit="10"/><text fill="rgb(68,68,68)" stroke="none" font-family="helvetica" font-size="13px" font-style="normal" font-weight="normal" text-decoration="normal" x="0" y="4.5" text-anchor="start" dominant-baseline="alphabetic" transform="matrix(1, 0, 0, 1, 712.5, 255.5)" fill-opacity="1">加工石油焦核</text><text fill="none" stroke="rgb(0,0,0)" font-family="helvetica" font-size="13px" font-style="normal" font-weight="normal" text-decoration="normal" x="0" y="4.5" text-anchor="start" dominant-baseline="alphabetic" transform="matrix(1, 0, 0, 1, 712.5, 255.5)" stroke-opacity="0" stroke-linejoin="bevel" stroke-miterlimit="10">加工石油焦核</text><text fill="rgb(68,68,68)" stroke="none" font-family="helvetica" font-size="13px" font-style="normal" font-weight="bold" text-decoration="normal" x="73" y="19" text-anchor="start" dominant-baseline="alphabetic" transform="matrix(1, 0, 0, 1, 0.5, 0.5)" fill-opacity="1">浙江碳排放强度前7行业</text><text fill="none" stroke="rgb(0,0,0)" font-family="helvetica" font-size="13px" font-style="normal" font-weight="bold" text-decoration="normal" x="73" y="19" text-anchor="start" dominant-baseline="alphabetic" transform="matrix(1, 0, 0, 1, 0.5, 0.5)" stroke-opacity="0" stroke-miterlimit="10" stroke-dasharray="">浙江碳排放强度前7行业</text></svg>