<?xml version="1.0" encoding="UTF-8" standalone="no"?>
<svg
   width="128"
   height="128"
   viewBox="0 0 33.867 33.867"
   version="1.1"
   id="svg6"
   sodipodi:docname="logo.svg"
   inkscape:version="1.3.2 (091e20e, 2023-11-25, custom)"
   xmlns:inkscape="http://www.inkscape.org/namespaces/inkscape"
   xmlns:sodipodi="http://sodipodi.sourceforge.net/DTD/sodipodi-0.dtd"
   xmlns="http://www.w3.org/2000/svg"
   xmlns:svg="http://www.w3.org/2000/svg">
  <defs
     id="defs6" />
  <sodipodi:namedview
     id="namedview6"
     pagecolor="#ffffff"
     bordercolor="#000000"
     borderopacity="0.25"
     inkscape:showpageshadow="2"
     inkscape:pageopacity="0.0"
     inkscape:pagecheckerboard="0"
     inkscape:deskcolor="#d1d1d1"
     showgrid="false"
     inkscape:zoom="11.070312"
     inkscape:cx="63.954834"
     inkscape:cy="64"
     inkscape:window-width="2880"
     inkscape:window-height="1694"
     inkscape:window-x="1609"
     inkscape:window-y="648"
     inkscape:window-maximized="1"
     inkscape:current-layer="g1" />
  <g
     style="display:inline"
     id="g1"
     inkscape:label="g1">
    <ellipse
       style="display:inline;opacity:1;fill:#ffffff;fill-opacity:1;stroke:#000000;stroke-width:0.0850009;stroke-linecap:round;stroke-linejoin:round;stroke-miterlimit:0.5;paint-order:stroke fill markers"
       id="path7"
       cx="16.932972"
       cy="16.93297"
       rx="16.764793"
       ry="16.764791"
       inkscape:label="bg_white" />
    <path
       style="display:inline;opacity:0.88;fill:#ffffff;fill-opacity:0;stroke:#777a44;stroke-width:2.11667"
       d="M 31.75,16.107 A 15.749,15.749 0 0 1 16.001,31.856 15.749,15.749 0 0 1 0.252,16.107 15.749,15.749 0 0 1 16.001,0.358 15.749,15.749 0 0 1 31.75,16.107 Z"
       fill="none"
       transform="translate(0.932,0.826)"
       id="path1" />
  </g>
  <g
     style="font-size:10.8414px;font-family:Arial;-inkscape-font-specification:Arial;display:inline;opacity:1;fill:#777a44;stroke:#777a44;stroke-width:0.508986"
     id="g2">
    <path
       d="m 15.05,19.57 c 0.704,0 1.322,-0.38 1.788,-0.835 h 0.032 l 0.087,0.694 h 0.802 v -8.63 h -0.975 v 2.266 l 0.043,1.02 c -0.52,-0.434 -0.965,-0.695 -1.659,-0.695 -1.344,0 -2.547,1.193 -2.547,3.101 0,1.962 0.954,3.079 2.428,3.079 z m 0.216,-0.824 c -1.04,0 -1.626,-0.846 -1.626,-2.266 0,-1.344 0.748,-2.255 1.702,-2.255 0.488,0 0.932,0.174 1.442,0.618 v 3.09 c -0.499,0.542 -0.976,0.813 -1.518,0.813 z"
       style="font-family:'Noto Sans TC';-inkscape-font-specification:'Noto Sans TC';stroke-width:0.508988"
       transform="matrix(1.04674,0,0,0.95534,0.932,0.826)"
       aria-label="d"
       id="path2" />
  </g>
  <g
     style="font-size:19.7556px;font-family:Arial;-inkscape-font-specification:Arial;display:inline;opacity:0.8;fill:#002147;stroke:#002147;stroke-width:0.529998"
     id="g3">
    <path
       d="m 6.203,-19.918 q 1.013,-1.273 1.582,-1.678 0.772,-0.56 1.63,-0.56 1.013,0 1.891,0.733 0.888,0.734 0.888,2.364 0,1.138 -0.328,1.794 -0.328,0.646 -1.023,1.042 -0.694,0.395 -1.427,0.395 -0.859,0 -1.63,-0.55 -0.57,-0.414 -1.583,-1.688 -1.312,1.65 -2.787,1.65 -0.975,0 -1.679,-0.733 -0.694,-0.743 -0.694,-1.843 0,-1.09 0.694,-1.833 0.704,-0.742 1.679,-0.742 1.475,0 2.787,1.65 z M 6.87,-19 q 0.84,1.302 1.534,1.784 0.443,0.319 0.993,0.319 0.733,0 1.225,-0.54 0.502,-0.54 0.502,-1.525 0,-1.022 -0.511,-1.563 -0.502,-0.54 -1.254,-0.54 -0.473,0 -0.888,0.27 -0.56,0.377 -1.601,1.795 z m -1.331,0.01 q -0.772,-0.965 -1.235,-1.236 -0.463,-0.28 -0.887,-0.28 -0.56,0 -0.936,0.396 -0.367,0.396 -0.367,1.09 0,0.685 0.386,1.1 0.386,0.405 0.936,0.405 0.974,0 2.103,-1.476 z"
       style="stroke-width:0.53"
       transform="rotate(140.856,1.306,2.89)"
       aria-label="∞"
       id="path3" />
  </g>
  <g
     style="font-size:19.7556px;font-family:Arial;-inkscape-font-specification:Arial;display:inline;opacity:0.8;fill:#5b92e5;stroke:#5b92e5;stroke-width:0.529998"
     id="g4">
    <path
       d="m 10.106,15.82 q 1.013,-1.274 1.582,-1.68 0.772,-0.559 1.63,-0.559 1.013,0 1.891,0.733 0.888,0.734 0.888,2.364 0,1.138 -0.328,1.794 -0.328,0.646 -1.023,1.042 -0.694,0.395 -1.427,0.395 -0.859,0 -1.63,-0.55 -0.57,-0.414 -1.583,-1.688 -1.312,1.65 -2.787,1.65 -0.975,0 -1.679,-0.733 -0.694,-0.743 -0.694,-1.843 0,-1.09 0.694,-1.833 0.704,-0.742 1.679,-0.742 1.475,0 2.787,1.65 z m 0.666,0.916 q 0.84,1.302 1.534,1.784 0.443,0.319 0.993,0.319 0.733,0 1.225,-0.54 0.502,-0.54 0.502,-1.525 0,-1.022 -0.511,-1.563 -0.502,-0.54 -1.254,-0.54 -0.473,0 -0.888,0.27 -0.56,0.377 -1.601,1.795 z m -1.331,0.01 q -0.772,-0.965 -1.235,-1.235 -0.463,-0.28 -0.887,-0.28 -0.56,0 -0.936,0.395 -0.367,0.396 -0.367,1.09 0,0.685 0.386,1.1 0.386,0.405 0.936,0.405 0.974,0 2.103,-1.476 z"
       style="stroke-width:0.53"
       transform="rotate(-39.144,8.13,-3.674)"
       aria-label="∞"
       id="path4" />
  </g>
  <g
     style="font-size:19.7556px;font-family:Arial;-inkscape-font-specification:Arial;display:inline;opacity:1;fill:#002625;stroke:#002625;stroke-width:0.529998"
     id="g5">
    <path
       d="m 26.047,-3.766 q 1.013,-1.273 1.582,-1.678 0.772,-0.56 1.63,-0.56 1.013,0 1.891,0.733 0.888,0.734 0.888,2.364 0,1.138 -0.328,1.794 -0.328,0.646 -1.023,1.042 -0.694,0.395 -1.427,0.395 -0.859,0 -1.63,-0.55 -0.57,-0.414 -1.583,-1.688 -1.312,1.65 -2.787,1.65 -0.975,0 -1.679,-0.733 -0.694,-0.743 -0.694,-1.843 0,-1.09 0.694,-1.833 0.704,-0.742 1.679,-0.742 1.475,0 2.787,1.65 z m 0.666,0.917 q 0.84,1.302 1.534,1.784 0.443,0.319 0.993,0.319 0.733,0 1.225,-0.54 0.502,-0.54 0.502,-1.525 0,-1.022 -0.511,-1.563 -0.502,-0.54 -1.254,-0.54 -0.473,0 -0.888,0.27 -0.56,0.377 -1.601,1.795 z m -1.331,0.01 q -0.772,-0.965 -1.235,-1.235 -0.463,-0.28 -0.887,-0.28 -0.56,0 -0.936,0.395 -0.367,0.396 -0.367,1.09 0,0.685 0.386,1.1 0.386,0.405 0.936,0.405 0.974,0 2.103,-1.476 z"
       style="stroke-width:0.53"
       transform="matrix(0.77556185,0.63127158,0.63127158,-0.77556185,4.1441993,4.3077138)"
       aria-label="∞"
       id="path5" />
  </g>
  <g
     style="font-size:19.7556px;font-family:Arial;-inkscape-font-specification:Arial;display:inline;opacity:0.8;fill:#006d69;stroke:#006d69;stroke-width:0.529998"
     id="g6">
    <path
       d="m -9.738,-0.333 q 1.013,-1.273 1.582,-1.678 0.772,-0.56 1.63,-0.56 1.013,0 1.891,0.733 0.888,0.734 0.888,2.364 0,1.138 -0.328,1.794 -0.328,0.646 -1.023,1.042 -0.694,0.395 -1.427,0.395 -0.859,0 -1.63,-0.55 -0.57,-0.414 -1.583,-1.688 -1.312,1.65 -2.787,1.65 -0.975,0 -1.679,-0.733 -0.694,-0.743 -0.694,-1.843 0,-1.09 0.694,-1.833 0.704,-0.742 1.679,-0.742 1.475,0 2.787,1.65 z m 0.666,0.917 q 0.84,1.302 1.534,1.784 0.443,0.319 0.993,0.319 0.733,0 1.225,-0.54 0.502,-0.54 0.502,-1.525 0,-1.022 -0.511,-1.563 -0.502,-0.54 -1.254,-0.54 -0.473,0 -0.888,0.27 -0.56,0.377 -1.601,1.795 z m -1.331,0.01 q -0.772,-0.965 -1.235,-1.235 -0.463,-0.28 -0.887,-0.28 -0.56,0 -0.936,0.395 -0.367,0.396 -0.367,1.09 0,0.685 0.386,1.1 0.386,0.405 0.936,0.405 0.974,0 2.103,-1.476 z"
       style="stroke-width:0.53"
       transform="matrix(-0.77556185,-0.63127158,-0.63127158,0.77556185,4.1441993,4.3077138)"
       aria-label="∞"
       id="path6" />
  </g>
</svg>
