<?xml version="1.0" encoding="UTF-8" standalone="no"?>
<!-- Created with Inkscape (http://www.inkscape.org/) -->

<svg
   version="1.1"
   id="svg464"
   width="490.15591"
   height="450.00543"
   viewBox="0 0 490.15592 450.00543"
   sodipodi:docname="ITU-Thematic_Pillar-4.a-zh-hans_ink.svg"
   inkscape:version="1.2.2 (732a01da63, 2022-12-09)"
   xmlns:inkscape="http://www.inkscape.org/namespaces/inkscape"
   xmlns:sodipodi="http://sodipodi.sourceforge.net/DTD/sodipodi-0.dtd"
   xmlns="http://www.w3.org/2000/svg"
   xmlns:svg="http://www.w3.org/2000/svg">
  <defs
     id="defs468">
    <clipPath
       clipPathUnits="userSpaceOnUse"
       id="clipPath480">
      <path
         d="M 0,0 H 2483.3333 V 1751.5298 H 0 Z"
         clip-rule="evenodd"
         id="path478" />
    </clipPath>
  </defs>
  <sodipodi:namedview
     id="namedview466"
     pagecolor="#ffffff"
     bordercolor="#000000"
     borderopacity="0.25"
     inkscape:showpageshadow="2"
     inkscape:pageopacity="0.0"
     inkscape:pagecheckerboard="0"
     inkscape:deskcolor="#d1d1d1"
     showgrid="false"
     inkscape:zoom="0.41951081"
     inkscape:cx="-63.168813"
     inkscape:cy="264.5939"
     inkscape:window-width="2880"
     inkscape:window-height="1694"
     inkscape:window-x="-11"
     inkscape:window-y="184"
     inkscape:window-maximized="1"
     inkscape:current-layer="g472">
    <inkscape:page
       x="0"
       y="0"
       id="page470"
       width="490.15591"
       height="450.00543" />
  </sodipodi:namedview>
  <g
     id="g472"
     inkscape:groupmode="layer"
     inkscape:label="Page 1"
     transform="matrix(0.31999998,0,0,0.31999998,-149.67232,-17.069167)">
    <g
       id="g474">
      <g
         id="g476"
         clip-path="url(#clipPath480)">
        <g
           id="g482"
           transform="matrix(1.9994633,0,0,1.9994633,0.99973166,0.99973166)">
          <path
             d="m 899,280 v 80"
             style="fill:none;stroke:#82b366;stroke-width:1;stroke-linecap:butt;stroke-linejoin:miter;stroke-miterlimit:10;stroke-dasharray:none;stroke-opacity:1"
             id="path484" />
        </g>
        <g
           id="g486"
           transform="scale(1.9994633)">
          <text
             xml:space="preserve"
             transform="translate(233.46875,57)"
             style="font-variant:normal;font-weight:bold;font-size:36px;font-family:'Microsoft YaHei UI';-inkscape-font-specification:MicrosoftYaHei-Bold;writing-mode:lr-tb;fill:#000000;fill-opacity:1;fill-rule:nonzero;stroke:none"
             id="text490"><tspan
               x="0 36 72"
               y="0"
               sodipodi:role="line"
               id="tspan488">支柱主</tspan></text>
          <text
             xml:space="preserve"
             transform="translate(341.46875,57)"
             style="font-variant:normal;font-weight:bold;font-size:36px;font-family:'Microsoft YaHei UI';-inkscape-font-specification:MicrosoftYaHei-Bold;writing-mode:lr-tb;fill:#000000;fill-opacity:1;fill-rule:nonzero;stroke:none"
             id="text494"><tspan
               x="0"
               y="0"
               id="tspan492">題</tspan></text>
          <text
             xml:space="preserve"
             transform="translate(377.46875,57)"
             style="font-variant:normal;font-weight:bold;font-size:32px;font-family:'Microsoft YaHei UI';-inkscape-font-specification:MicrosoftYaHei-Bold;writing-mode:lr-tb;fill:#000000;fill-opacity:1;fill-rule:nonzero;stroke:none"
             id="text498"><tspan
               x="0"
               y="0"
               id="tspan496">：</tspan></text>
          <text
             xml:space="preserve"
             transform="translate(409.46875,57)"
             style="font-variant:normal;font-weight:bold;font-size:36px;font-family:Arial;-inkscape-font-specification:Arial-BoldMT;writing-mode:lr-tb;fill:#000000;fill-opacity:1;fill-rule:nonzero;stroke:none"
             id="text502"><tspan
               x="0 20.021484 30.023438 50.044922 60.046875"
               y="0"
               sodipodi:role="line"
               id="tspan500">4.a. </tspan></text>
          <text
             xml:space="preserve"
             transform="translate(479.53125,57)"
             style="font-variant:normal;font-weight:bold;font-size:36px;font-family:'Microsoft YaHei UI';-inkscape-font-specification:MicrosoftYaHei-Bold;writing-mode:lr-tb;fill:#000000;fill-opacity:1;fill-rule:nonzero;stroke:none"
             id="text506"><tspan
               x="0 36 72 108 144 180"
               y="0"
               sodipodi:role="line"
               id="tspan504">圍繞綠色標准</tspan></text>
          <text
             xml:space="preserve"
             transform="translate(695.53125,57)"
             style="font-variant:normal;font-weight:bold;font-size:36px;font-family:'Microsoft YaHei UI';-inkscape-font-specification:MicrosoftYaHei-Bold;writing-mode:lr-tb;fill:#000000;fill-opacity:1;fill-rule:nonzero;stroke:none"
             id="text510"><tspan
               x="0 36 72 108"
               y="0"
               sodipodi:role="line"
               id="tspan508">造時勢、</tspan></text>
          <text
             xml:space="preserve"
             transform="translate(839.53125,57)"
             style="font-variant:normal;font-weight:bold;font-size:36px;font-family:'Microsoft YaHei UI';-inkscape-font-specification:MicrosoftYaHei-Bold;writing-mode:lr-tb;fill:#000000;fill-opacity:1;fill-rule:nonzero;stroke:none"
             id="text514"><tspan
               x="0 36 72"
               y="0"
               sodipodi:role="line"
               id="tspan512">立動力</tspan></text>
          <text
             xml:space="preserve"
             transform="translate(273.15625,88)"
             style="font-variant:normal;font-weight:bold;font-size:28px;font-family:Arial;-inkscape-font-specification:Arial-BoldMT;writing-mode:lr-tb;fill:#000000;fill-opacity:1;fill-rule:nonzero;stroke:none"
             id="text518"><tspan
               x="0 20.220703 42 60.675781 76.248047"
               y="0"
               sodipodi:role="line"
               id="tspan516">COP28</tspan></text>
          <text
             xml:space="preserve"
             transform="translate(364.97656,88)"
             style="font-variant:normal;font-weight:bold;font-size:28px;font-family:'Microsoft YaHei UI';-inkscape-font-specification:MicrosoftYaHei-Bold;writing-mode:lr-tb;fill:#000000;fill-opacity:1;fill-rule:nonzero;stroke:none"
             id="text522"><tspan
               x="0 28 56 84 112 140 168 196 224 252 280 308 336 364"
               y="0"
               sodipodi:role="line"
               id="tspan520">《聯合國氣候變化框架公約》第</tspan></text>
          <text
             xml:space="preserve"
             transform="translate(756.97656,88)"
             style="font-variant:normal;font-weight:bold;font-size:28px;font-family:Arial;-inkscape-font-specification:Arial-BoldMT;writing-mode:lr-tb;fill:#000000;fill-opacity:1;fill-rule:nonzero;stroke:none"
             id="text526"><tspan
               x="0 15.572266"
               y="0"
               sodipodi:role="line"
               id="tspan524">28</tspan></text>
          <text
             xml:space="preserve"
             transform="translate(788.12109,88)"
             style="font-variant:normal;font-weight:bold;font-size:28px;font-family:'Microsoft YaHei UI';-inkscape-font-specification:MicrosoftYaHei-Bold;writing-mode:lr-tb;fill:#000000;fill-opacity:1;fill-rule:nonzero;stroke:none"
             id="text530"><tspan
               x="0 28 56 84 112 140"
               y="0"
               sodipodi:role="line"
               id="tspan528">次締約方大會</tspan></text>
        </g>
        <g
           id="g532"
           transform="matrix(1.9994633,0,0,1.9994633,0.99973166,0.99973166)">
          <path
             d="m 264,120 h 152 c 1.57584,0 3.13654,0.15372 4.6821,0.46115 1.54559,0.30744 3.04635,0.76267 4.50226,1.36572 1.4559,0.60306 2.83899,1.34234 4.14926,2.21785 1.31027,0.87549 2.52258,1.8704 3.6369,2.98471 1.11429,1.11431 2.10919,2.32659 2.98471,3.63688 0.87552,1.31027 1.61478,2.69335 2.21784,4.14927 0.60302,1.45592 1.05828,2.95665 1.36575,4.50223 0.30743,1.54559 0.46115,3.10632 0.46118,4.68219 v 112 c -3e-5,1.57584 -0.15375,3.13657 -0.46121,4.68213 -0.30747,1.54559 -0.7627,3.04636 -1.36576,4.50226 -0.60305,1.4559 -1.34231,2.83902 -2.2178,4.14929 -0.87552,1.31027 -1.87042,2.52258 -2.98471,3.63687 -1.11432,1.11429 -2.32663,2.10919 -3.6369,2.98468 -1.31027,0.87552 -2.69336,1.61478 -4.14926,2.21784 -1.45591,0.60305 -2.95667,1.05828 -4.50226,1.36575 C 419.13654,279.84628 417.57584,280 416,280 H 264 c -1.57587,0 -3.1366,-0.15372 -4.68219,-0.46118 -1.54559,-0.30747 -3.04633,-0.7627 -4.50224,-1.36575 -1.45591,-0.60306 -2.83901,-1.34232 -4.14929,-2.21784 -1.31028,-0.87549 -2.52256,-1.87039 -3.63686,-2.98468 -1.1143,-1.11429 -2.10922,-2.3266 -2.98473,-3.63687 -0.8755,-1.31027 -1.61477,-2.69339 -2.21783,-4.14929 -0.60306,-1.4559 -1.05831,-2.95667 -1.36572,-4.50226 C 240.15369,259.13657 239.99998,257.57584 240,256 V 144 c -2e-5,-1.57587 0.15369,-3.1366 0.46112,-4.68219 0.30743,-1.54558 0.76268,-3.04631 1.36574,-4.50223 0.60306,-1.45592 1.34233,-2.839 2.21783,-4.14927 0.87551,-1.31029 1.87043,-2.52257 2.98473,-3.63688 1.1143,-1.11431 2.32658,-2.10922 3.63686,-2.98471 1.31028,-0.87551 2.69338,-1.61479 4.14929,-2.21784 1.45591,-0.60305 2.95665,-1.05829 4.50227,-1.36573 C 260.8634,120.15372 262.42413,120 264,120 Z"
             style="fill:#dae8fc;fill-opacity:1;fill-rule:nonzero;stroke:none"
             id="path534" />
          <path
             d="m 264,120 h 152 c 1.57584,0 3.13654,0.15372 4.6821,0.46115 1.54559,0.30744 3.04635,0.76267 4.50226,1.36572 1.4559,0.60306 2.83899,1.34234 4.14926,2.21785 1.31027,0.87549 2.52258,1.8704 3.6369,2.98471 1.11429,1.11431 2.10919,2.32659 2.98471,3.63688 0.87552,1.31027 1.61478,2.69335 2.21784,4.14927 0.60302,1.45592 1.05828,2.95665 1.36575,4.50223 0.30743,1.54559 0.46115,3.10632 0.46118,4.68219 v 112 c -3e-5,1.57584 -0.15375,3.13657 -0.46121,4.68213 -0.30747,1.54559 -0.7627,3.04636 -1.36576,4.50226 -0.60305,1.4559 -1.34231,2.83902 -2.2178,4.14929 -0.87552,1.31027 -1.87042,2.52258 -2.98471,3.63687 -1.11432,1.11429 -2.32663,2.10919 -3.6369,2.98468 -1.31027,0.87552 -2.69336,1.61478 -4.14926,2.21784 -1.45591,0.60305 -2.95667,1.05828 -4.50226,1.36575 C 419.13654,279.84628 417.57584,280 416,280 H 264 c -1.57587,0 -3.1366,-0.15372 -4.68219,-0.46118 -1.54559,-0.30747 -3.04633,-0.7627 -4.50224,-1.36575 -1.45591,-0.60306 -2.83901,-1.34232 -4.14929,-2.21784 -1.31028,-0.87549 -2.52256,-1.87039 -3.63686,-2.98468 -1.1143,-1.11429 -2.10922,-2.3266 -2.98473,-3.63687 -0.8755,-1.31027 -1.61477,-2.69339 -2.21783,-4.14929 -0.60306,-1.4559 -1.05831,-2.95667 -1.36572,-4.50226 C 240.15369,259.13657 239.99998,257.57584 240,256 V 144 c -2e-5,-1.57587 0.15369,-3.1366 0.46112,-4.68219 0.30743,-1.54558 0.76268,-3.04631 1.36574,-4.50223 0.60306,-1.45592 1.34233,-2.839 2.21783,-4.14927 0.87551,-1.31029 1.87043,-2.52257 2.98473,-3.63688 1.1143,-1.11431 2.32658,-2.10922 3.63686,-2.98471 1.31028,-0.87551 2.69338,-1.61479 4.14929,-2.21784 1.45591,-0.60305 2.95665,-1.05829 4.50227,-1.36573 C 260.8634,120.15372 262.42413,120 264,120 Z"
             style="fill:none;stroke:#6c8ebf;stroke-width:1;stroke-linecap:butt;stroke-linejoin:miter;stroke-miterlimit:10;stroke-dasharray:none;stroke-opacity:1"
             id="path536" />
        </g>
        <g
           id="g538"
           transform="scale(1.9994633)">
          <text
             xml:space="preserve"
             transform="translate(271.54688,187)"
             style="font-variant:normal;font-weight:normal;font-size:32px;font-family:'Microsoft YaHei UI';-inkscape-font-specification:MicrosoftYaHei;writing-mode:lr-tb;fill:#000000;fill-opacity:1;fill-rule:nonzero;stroke:none"
             id="text542"><tspan
               x="0 32 64 96"
               y="0"
               sodipodi:role="line"
               id="tspan540">准備過程</tspan></text>
          <text
             xml:space="preserve"
             transform="translate(399.54688,187)"
             style="font-variant:normal;font-weight:normal;font-size:32px;font-family:Arial;-inkscape-font-specification:ArialMT;writing-mode:lr-tb;fill:#000000;fill-opacity:1;fill-rule:nonzero;stroke:none"
             id="text546"><tspan
               x="0"
               y="0"
               id="tspan544">:</tspan></text>
          <text
             xml:space="preserve"
             transform="translate(250,215)"
             style="font-variant:normal;font-weight:normal;font-size:20px;font-family:'Microsoft YaHei UI';-inkscape-font-specification:MicrosoftYaHei;writing-mode:lr-tb;fill:#000000;fill-opacity:1;fill-rule:nonzero;stroke:none"
             id="text550"><tspan
               x="0 20 40 60 80 100 120 140 160"
               y="0"
               sodipodi:role="line"
               id="tspan548">確立、促進並就綠色</tspan></text>
          <text
             xml:space="preserve"
             transform="translate(260,239)"
             style="font-variant:normal;font-weight:normal;font-size:20px;font-family:'Microsoft YaHei UI';-inkscape-font-specification:MicrosoftYaHei;writing-mode:lr-tb;fill:#000000;fill-opacity:1;fill-rule:nonzero;stroke:none"
             id="text554"><tspan
               x="0 20"
               y="0"
               sodipodi:role="line"
               id="tspan552">標准</tspan></text>
          <text
             xml:space="preserve"
             transform="translate(300,239)"
             style="font-variant:normal;font-weight:normal;font-size:20px;font-family:'Microsoft YaHei UI';-inkscape-font-specification:MicrosoftYaHei;writing-mode:lr-tb;fill:#000000;fill-opacity:1;fill-rule:nonzero;stroke:none"
             id="text558"><tspan
               x="0 20"
               y="0"
               sodipodi:role="line"
               id="tspan556">實施</tspan></text>
          <text
             xml:space="preserve"
             transform="translate(340,239)"
             style="font-variant:normal;font-weight:normal;font-size:20px;font-family:'Microsoft YaHei UI';-inkscape-font-specification:MicrosoftYaHei;writing-mode:lr-tb;fill:#000000;fill-opacity:1;fill-rule:nonzero;stroke:none"
             id="text562"><tspan
               x="0 20 40 60"
               y="0"
               sodipodi:role="line"
               id="tspan560">達成一致</tspan></text>
        </g>
        <g
           id="g564"
           transform="matrix(1.9994633,0,0,1.9994633,0.99973166,0.99973166)">
          <path
             d="m 543,120 h 152 c 1.57587,0 3.13654,0.15372 4.68213,0.46115 1.54559,0.30744 3.04639,0.76267 4.50226,1.36572 1.45587,0.60306 2.83899,1.34234 4.14923,2.21785 1.3103,0.87549 2.52258,1.8704 3.6369,2.98471 1.11432,1.11431 2.10919,2.32659 2.98468,3.63688 0.87543,1.31027 1.61475,2.69335 2.21783,4.14927 0.60303,1.45592 1.05829,2.95665 1.36573,4.50223 0.30743,1.54559 0.46118,3.10632 0.46124,4.68219 v 112 c -6e-5,1.57584 -0.15375,3.13657 -0.46118,4.68213 -0.3075,1.54559 -0.76276,3.04636 -1.36579,4.50226 -0.60308,1.4559 -1.3424,2.83902 -2.21783,4.14929 -0.87549,1.31027 -1.87036,2.52258 -2.98468,3.63687 -1.11432,1.11429 -2.3266,2.10919 -3.6369,2.98468 -1.31024,0.87552 -2.69336,1.61478 -4.14923,2.21784 -1.45587,0.60305 -2.95661,1.05828 -4.5022,1.36575 C 698.1366,279.84628 696.57587,280 695,280 H 543 c -1.57587,0 -3.1366,-0.15372 -4.68219,-0.46118 -1.54559,-0.30747 -3.04639,-0.7627 -4.50232,-1.36575 -1.45593,-0.60306 -2.83905,-1.34232 -4.14929,-2.21784 -1.31024,-0.87549 -2.52246,-1.87039 -3.63678,-2.98468 -1.11432,-1.11429 -2.10925,-2.3266 -2.98474,-3.63687 -0.87549,-1.31027 -1.61475,-2.69339 -2.21784,-4.14929 -0.60309,-1.4559 -1.05829,-2.95667 -1.36572,-4.50226 C 519.15369,259.13657 519,257.57584 519,256 V 144 c 0,-1.57587 0.15369,-3.1366 0.46112,-4.68219 0.30737,-1.54558 0.76257,-3.04631 1.36566,-4.50223 0.60309,-1.45592 1.34235,-2.839 2.2179,-4.14927 0.87549,-1.31029 1.87042,-2.52257 2.98474,-3.63688 1.11432,-1.11431 2.3266,-2.10922 3.63684,-2.98471 1.31024,-0.87551 2.6933,-1.61479 4.14923,-2.21784 1.45593,-0.60305 2.95673,-1.05829 4.50232,-1.36573 C 539.8634,120.15372 541.42413,120 543,120 Z"
             style="fill:#f9f7ed;fill-opacity:1;fill-rule:nonzero;stroke:none"
             id="path566" />
          <path
             d="m 543,120 h 152 c 1.57587,0 3.13654,0.15372 4.68213,0.46115 1.54559,0.30744 3.04639,0.76267 4.50226,1.36572 1.45587,0.60306 2.83899,1.34234 4.14923,2.21785 1.3103,0.87549 2.52258,1.8704 3.6369,2.98471 1.11432,1.11431 2.10919,2.32659 2.98468,3.63688 0.87543,1.31027 1.61475,2.69335 2.21783,4.14927 0.60303,1.45592 1.05829,2.95665 1.36573,4.50223 0.30743,1.54559 0.46118,3.10632 0.46124,4.68219 v 112 c -6e-5,1.57584 -0.15375,3.13657 -0.46118,4.68213 -0.3075,1.54559 -0.76276,3.04636 -1.36579,4.50226 -0.60308,1.4559 -1.3424,2.83902 -2.21783,4.14929 -0.87549,1.31027 -1.87036,2.52258 -2.98468,3.63687 -1.11432,1.11429 -2.3266,2.10919 -3.6369,2.98468 -1.31024,0.87552 -2.69336,1.61478 -4.14923,2.21784 -1.45587,0.60305 -2.95661,1.05828 -4.5022,1.36575 C 698.1366,279.84628 696.57587,280 695,280 H 543 c -1.57587,0 -3.1366,-0.15372 -4.68219,-0.46118 -1.54559,-0.30747 -3.04639,-0.7627 -4.50232,-1.36575 -1.45593,-0.60306 -2.83905,-1.34232 -4.14929,-2.21784 -1.31024,-0.87549 -2.52246,-1.87039 -3.63678,-2.98468 -1.11432,-1.11429 -2.10925,-2.3266 -2.98474,-3.63687 -0.87549,-1.31027 -1.61475,-2.69339 -2.21784,-4.14929 -0.60309,-1.4559 -1.05829,-2.95667 -1.36572,-4.50226 C 519.15369,259.13657 519,257.57584 519,256 V 144 c 0,-1.57587 0.15369,-3.1366 0.46112,-4.68219 0.30737,-1.54558 0.76257,-3.04631 1.36566,-4.50223 0.60309,-1.45592 1.34235,-2.839 2.2179,-4.14927 0.87549,-1.31029 1.87042,-2.52257 2.98474,-3.63688 1.11432,-1.11431 2.3266,-2.10922 3.63684,-2.98471 1.31024,-0.87551 2.6933,-1.61479 4.14923,-2.21784 1.45593,-0.60305 2.95673,-1.05829 4.50232,-1.36573 C 539.8634,120.15372 541.42413,120 543,120 Z"
             style="fill:none;stroke:#36393d;stroke-width:1;stroke-linecap:butt;stroke-linejoin:miter;stroke-miterlimit:10;stroke-dasharray:none;stroke-opacity:1"
             id="path568" />
        </g>
        <g
           id="g570"
           transform="scale(1.9994633)">
          <text
             xml:space="preserve"
             transform="translate(561.67188,162)"
             style="font-variant:normal;font-weight:normal;font-size:28px;font-family:Arial;-inkscape-font-specification:ArialMT;writing-mode:lr-tb;fill:#000000;fill-opacity:1;fill-rule:nonzero;stroke:none"
             id="text574"><tspan
               x="0 20.220703 42 60.169922 67.949219 83.521484 99.09375 106.87305"
               y="0"
               sodipodi:role="line"
               id="tspan572">COP 28: </tspan></text>
          <text
             xml:space="preserve"
             transform="translate(549,188)"
             style="font-variant:normal;font-weight:normal;font-size:20px;font-family:'Microsoft YaHei UI';-inkscape-font-specification:MicrosoftYaHei;writing-mode:lr-tb;fill:#000000;fill-opacity:1;fill-rule:nonzero;stroke:none"
             id="text578"><tspan
               x="0 20 40 60 80 100 120"
               y="0"
               sodipodi:role="line"
               id="tspan576">行動計劃，包括</tspan></text>
          <text
             xml:space="preserve"
             transform="translate(569,212)"
             style="font-variant:normal;font-weight:normal;font-size:20px;font-family:'Microsoft YaHei UI';-inkscape-font-specification:MicrosoftYaHei;writing-mode:lr-tb;fill:#000000;fill-opacity:1;fill-rule:nonzero;stroke:none"
             id="text582"><tspan
               x="0 20 40 60 80"
               y="0"
               sodipodi:role="line"
               id="tspan580">行動呼吁和</tspan></text>
          <text
             xml:space="preserve"
             transform="translate(549,236)"
             style="font-variant:normal;font-weight:normal;font-size:20px;font-family:'Microsoft YaHei UI';-inkscape-font-specification:MicrosoftYaHei;writing-mode:lr-tb;fill:#000000;fill-opacity:1;fill-rule:nonzero;stroke:none"
             id="text586"><tspan
               x="0 20 40 60 80 100 120"
               y="0"
               sodipodi:role="line"
               id="tspan584">後續跟進階段。</tspan></text>
          <text
             xml:space="preserve"
             transform="translate(539,260)"
             style="font-variant:normal;font-weight:normal;font-size:20px;font-family:'Microsoft YaHei UI';-inkscape-font-specification:MicrosoftYaHei;writing-mode:lr-tb;fill:#000000;fill-opacity:1;fill-rule:nonzero;stroke:none"
             id="text590"><tspan
               x="0 20 40 60 80 100 120"
               y="0"
               sodipodi:role="line"
               id="tspan588">啟動同行工作組</tspan></text>
          <text
             xml:space="preserve"
             transform="translate(679,260)"
             style="font-variant:normal;font-weight:normal;font-size:20px;font-family:'Microsoft YaHei UI';-inkscape-font-specification:MicrosoftYaHei;writing-mode:lr-tb;fill:#000000;fill-opacity:1;fill-rule:nonzero;stroke:none"
             id="text594"><tspan
               x="0"
               y="0"
               id="tspan592">。</tspan></text>
        </g>
        <g
           id="g596"
           transform="matrix(1.9994633,0,0,1.9994633,0.99973166,0.99973166)">
          <path
             d="m 823,120 h 152 c 1.57587,0 3.13654,0.15372 4.68207,0.46115 1.54559,0.30744 3.04632,0.76267 4.5022,1.36572 1.45587,0.60306 2.83898,1.34234 4.14929,2.21785 1.31036,0.87549 2.52264,1.8704 3.63696,2.98471 1.11432,1.11431 2.10919,2.32659 2.98468,3.63688 0.87543,1.31027 1.61475,2.69335 2.21783,4.14927 0.60303,1.45592 1.05829,2.95665 1.36573,4.50223 0.30743,1.54559 0.46118,3.10632 0.46124,4.68219 v 112 c -6e-5,1.57584 -0.15381,3.13657 -0.46124,4.68213 -0.3075,1.54559 -0.76276,3.04636 -1.36579,4.50226 -0.60308,1.4559 -1.34234,2.83902 -2.21777,4.14929 -0.87549,1.31027 -1.87036,2.52258 -2.98468,3.63687 -1.11432,1.11429 -2.3266,2.10919 -3.63696,2.98468 -1.31031,0.87552 -2.69342,1.61478 -4.14929,2.21784 -1.45588,0.60305 -2.95661,1.05828 -4.5022,1.36575 C 978.13654,279.84628 976.57587,280 975,280 H 823 c -1.57587,0 -3.13666,-0.15372 -4.68225,-0.46118 -1.54559,-0.30747 -3.04633,-0.7627 -4.50226,-1.36575 -1.45593,-0.60306 -2.83905,-1.34232 -4.14929,-2.21784 -1.3103,-0.87549 -2.52258,-1.87039 -3.63684,-2.98468 -1.11432,-1.11429 -2.10926,-2.3266 -2.98474,-3.63687 -0.87555,-1.31027 -1.61481,-2.69339 -2.21784,-4.14929 -0.60309,-1.4559 -1.05829,-2.95667 -1.36566,-4.50226 C 799.15369,259.13657 798.99994,257.57584 799,256 V 144 c -6e-5,-1.57587 0.15369,-3.1366 0.46112,-4.68219 0.30737,-1.54558 0.76257,-3.04631 1.36566,-4.50223 0.60303,-1.45592 1.34229,-2.839 2.21784,-4.14927 0.87548,-1.31029 1.87042,-2.52257 2.98474,-3.63688 1.11426,-1.11431 2.32654,-2.10922 3.63684,-2.98471 1.31024,-0.87551 2.69336,-1.61479 4.14929,-2.21784 1.45593,-0.60305 2.95667,-1.05829 4.50226,-1.36573 C 819.86334,120.15372 821.42413,120 823,120 Z"
             style="fill:#d5e8d4;fill-opacity:1;fill-rule:nonzero;stroke:none"
             id="path598" />
          <path
             d="m 823,120 h 152 c 1.57587,0 3.13654,0.15372 4.68207,0.46115 1.54559,0.30744 3.04632,0.76267 4.5022,1.36572 1.45587,0.60306 2.83898,1.34234 4.14929,2.21785 1.31036,0.87549 2.52264,1.8704 3.63696,2.98471 1.11432,1.11431 2.10919,2.32659 2.98468,3.63688 0.87543,1.31027 1.61475,2.69335 2.21783,4.14927 0.60303,1.45592 1.05829,2.95665 1.36573,4.50223 0.30743,1.54559 0.46118,3.10632 0.46124,4.68219 v 112 c -6e-5,1.57584 -0.15381,3.13657 -0.46124,4.68213 -0.3075,1.54559 -0.76276,3.04636 -1.36579,4.50226 -0.60308,1.4559 -1.34234,2.83902 -2.21777,4.14929 -0.87549,1.31027 -1.87036,2.52258 -2.98468,3.63687 -1.11432,1.11429 -2.3266,2.10919 -3.63696,2.98468 -1.31031,0.87552 -2.69342,1.61478 -4.14929,2.21784 -1.45588,0.60305 -2.95661,1.05828 -4.5022,1.36575 C 978.13654,279.84628 976.57587,280 975,280 H 823 c -1.57587,0 -3.13666,-0.15372 -4.68225,-0.46118 -1.54559,-0.30747 -3.04633,-0.7627 -4.50226,-1.36575 -1.45593,-0.60306 -2.83905,-1.34232 -4.14929,-2.21784 -1.3103,-0.87549 -2.52258,-1.87039 -3.63684,-2.98468 -1.11432,-1.11429 -2.10926,-2.3266 -2.98474,-3.63687 -0.87555,-1.31027 -1.61481,-2.69339 -2.21784,-4.14929 -0.60309,-1.4559 -1.05829,-2.95667 -1.36566,-4.50226 C 799.15369,259.13657 798.99994,257.57584 799,256 V 144 c -6e-5,-1.57587 0.15369,-3.1366 0.46112,-4.68219 0.30737,-1.54558 0.76257,-3.04631 1.36566,-4.50223 0.60303,-1.45592 1.34229,-2.839 2.21784,-4.14927 0.87548,-1.31029 1.87042,-2.52257 2.98474,-3.63688 1.11426,-1.11431 2.32654,-2.10922 3.63684,-2.98471 1.31024,-0.87551 2.69336,-1.61479 4.14929,-2.21784 1.45593,-0.60305 2.95667,-1.05829 4.50226,-1.36573 C 819.86334,120.15372 821.42413,120 823,120 Z"
             style="fill:none;stroke:#82b366;stroke-width:1;stroke-linecap:butt;stroke-linejoin:miter;stroke-miterlimit:10;stroke-dasharray:none;stroke-opacity:1"
             id="path600" />
        </g>
        <g
           id="g602"
           transform="scale(1.9994633)">
          <text
             xml:space="preserve"
             transform="translate(835.1875,169)"
             style="font-variant:normal;font-weight:normal;font-size:28px;font-family:'Microsoft YaHei UI';-inkscape-font-specification:MicrosoftYaHei;writing-mode:lr-tb;fill:#000000;fill-opacity:1;fill-rule:nonzero;stroke:none"
             id="text606"><tspan
               x="0"
               y="0"
               id="tspan604">後</tspan></text>
          <text
             xml:space="preserve"
             transform="translate(863.1875,169)"
             style="font-variant:normal;font-weight:normal;font-size:28px;font-family:Arial;-inkscape-font-specification:ArialMT;writing-mode:lr-tb;fill:#000000;fill-opacity:1;fill-rule:nonzero;stroke:none"
             id="text610"><tspan
               x="0 20.220703 42 60.675781 76.248047 91.820312"
               y="0"
               sodipodi:role="line"
               id="tspan608">COP28:</tspan></text>
          <text
             xml:space="preserve"
             transform="translate(801,203)"
             style="font-variant:normal;font-weight:bold;font-size:28px;font-family:'Microsoft YaHei UI';-inkscape-font-specification:MicrosoftYaHei-Bold;writing-mode:lr-tb;fill:#000000;fill-opacity:1;fill-rule:nonzero;stroke:none"
             id="text614"><tspan
               x="0 28 56 84 112 140 168"
               y="0"
               sodipodi:role="line"
               id="tspan612">同行學習工作組</tspan></text>
          <text
             xml:space="preserve"
             transform="translate(809,229)"
             style="font-variant:normal;font-weight:normal;font-size:20px;font-family:'Microsoft YaHei UI';-inkscape-font-specification:MicrosoftYaHei;writing-mode:lr-tb;fill:#000000;fill-opacity:1;fill-rule:nonzero;stroke:none"
             id="text618"><tspan
               x="0 20 40 60 80 100 120 140 160"
               y="0"
               sodipodi:role="line"
               id="tspan616">負責跟進行動計劃的</tspan></text>
          <text
             xml:space="preserve"
             transform="translate(849,253)"
             style="font-variant:normal;font-weight:normal;font-size:20px;font-family:'Microsoft YaHei UI';-inkscape-font-specification:MicrosoftYaHei;writing-mode:lr-tb;fill:#000000;fill-opacity:1;fill-rule:nonzero;stroke:none"
             id="text622"><tspan
               x="0 20 40 60 80"
               y="0"
               sodipodi:role="line"
               id="tspan620">實施情況。</tspan></text>
        </g>
        <g
           id="g624"
           transform="matrix(1.9994633,0,0,1.9994633,0.99973166,0.99973166)">
          <path
             d="m 719.5,205 v -10 h 60 v -10.5 l 19,15.5 -19,15.5 V 205 Z"
             style="fill:#008a00;fill-opacity:1;fill-rule:nonzero;stroke:none"
             id="path626" />
          <path
             d="m 719.5,205 v -10 h 60 v -10.5 l 19,15.5 -19,15.5 V 205 Z"
             style="fill:none;stroke:#005700;stroke-width:1;stroke-linecap:butt;stroke-linejoin:miter;stroke-miterlimit:10;stroke-dasharray:none;stroke-opacity:1"
             id="path628" />
          <path
             d="m 439.5,204.17 v -10 h 60 v -10.5 l 19,15.5 -19,15.5 v -10.5 z"
             style="fill:#1ba1e2;fill-opacity:1;fill-rule:nonzero;stroke:none"
             id="path630" />
          <path
             d="m 439.5,204.17 v -10 h 60 v -10.5 l 19,15.5 -19,15.5 v -10.5 z"
             style="fill:none;stroke:#006eaf;stroke-width:1;stroke-linecap:butt;stroke-linejoin:miter;stroke-miterlimit:10;stroke-dasharray:none;stroke-opacity:1"
             id="path632" />
          <path
             d="m 829,360 h 140 c 1.96979,0 3.92072,0.19214 5.85266,0.57642 1.93195,0.3843 3.80786,0.9534 5.62775,1.70721 1.81988,0.75382 3.5487,1.67792 5.18658,2.77228 1.63782,1.09439 3.1532,2.33801 4.54614,3.73089 1.39289,1.39289 2.63648,2.90824 3.73078,4.54609 1.09442,1.63784 2.01855,3.36673 2.7724,5.18658 0.75384,1.81985 1.32287,3.6958 1.70721,5.62781 0.38428,1.93197 0.57642,3.8829 0.57648,5.85272 v 260 c -6e-5,1.96979 -0.1922,3.92065 -0.57648,5.85266 -0.38434,1.93195 -0.95343,3.80786 -1.70727,5.62775 -0.75385,1.81988 -1.67792,3.5487 -2.77234,5.18658 -1.0943,1.63788 -2.33789,3.15332 -3.73078,4.54621 -1.39294,1.39288 -2.90832,2.63647 -4.54608,3.73089 -1.63788,1.09436 -3.36676,2.01843 -5.18664,2.77228 -1.81989,0.75384 -3.69586,1.32288 -5.62781,1.70715 C 972.92065,679.80786 970.96979,680 969,680 H 829 c -1.96985,0 -3.92078,-0.19214 -5.85278,-0.57648 -1.93201,-0.38427 -3.80799,-0.95331 -5.62787,-1.70715 -1.81989,-0.75385 -3.54877,-1.67792 -5.18653,-2.77228 -1.63787,-1.09442 -3.15325,-2.33801 -4.54608,-3.73089 -1.39288,-1.39289 -2.63653,-2.90827 -3.73095,-4.54615 -1.09443,-1.63788 -2.01856,-3.36676 -2.77234,-5.18664 -0.75385,-1.81989 -1.32288,-3.6958 -1.7071,-5.62775 C 799.19208,653.92065 798.99994,651.96979 799,650 V 390 c -6e-5,-1.96982 0.19208,-3.92072 0.57635,-5.85269 0.38422,-1.93204 0.95325,-3.80799 1.7071,-5.62784 0.75378,-1.81985 1.67791,-3.54874 2.77234,-5.18658 1.09442,-1.63785 2.33807,-3.1532 3.73095,-4.54609 1.39283,-1.39288 2.90815,-2.63653 4.54602,-3.73092 1.63782,-1.09436 3.3667,-2.01847 5.18659,-2.77228 1.81988,-0.75381 3.69586,-1.32288 5.62787,-1.70718 C 825.07922,360.19214 827.03015,360 829,360 Z"
             style="fill:#d5e8d4;fill-opacity:1;fill-rule:nonzero;stroke:none"
             id="path634" />
          <path
             d="m 829,360 h 140 c 1.96979,0 3.92072,0.19214 5.85266,0.57642 1.93195,0.3843 3.80786,0.9534 5.62775,1.70721 1.81988,0.75382 3.5487,1.67792 5.18658,2.77228 1.63782,1.09439 3.1532,2.33801 4.54614,3.73089 1.39289,1.39289 2.63648,2.90824 3.73078,4.54609 1.09442,1.63784 2.01855,3.36673 2.7724,5.18658 0.75384,1.81985 1.32287,3.6958 1.70721,5.62781 0.38428,1.93197 0.57642,3.8829 0.57648,5.85272 v 260 c -6e-5,1.96979 -0.1922,3.92065 -0.57648,5.85266 -0.38434,1.93195 -0.95343,3.80786 -1.70727,5.62775 -0.75385,1.81988 -1.67792,3.5487 -2.77234,5.18658 -1.0943,1.63788 -2.33789,3.15332 -3.73078,4.54621 -1.39294,1.39288 -2.90832,2.63647 -4.54608,3.73089 -1.63788,1.09436 -3.36676,2.01843 -5.18664,2.77228 -1.81989,0.75384 -3.69586,1.32288 -5.62781,1.70715 C 972.92065,679.80786 970.96979,680 969,680 H 829 c -1.96985,0 -3.92078,-0.19214 -5.85278,-0.57648 -1.93201,-0.38427 -3.80799,-0.95331 -5.62787,-1.70715 -1.81989,-0.75385 -3.54877,-1.67792 -5.18653,-2.77228 -1.63787,-1.09442 -3.15325,-2.33801 -4.54608,-3.73089 -1.39288,-1.39289 -2.63653,-2.90827 -3.73095,-4.54615 -1.09443,-1.63788 -2.01856,-3.36676 -2.77234,-5.18664 -0.75385,-1.81989 -1.32288,-3.6958 -1.7071,-5.62775 C 799.19208,653.92065 798.99994,651.96979 799,650 V 390 c -6e-5,-1.96982 0.19208,-3.92072 0.57635,-5.85269 0.38422,-1.93204 0.95325,-3.80799 1.7071,-5.62784 0.75378,-1.81985 1.67791,-3.54874 2.77234,-5.18658 1.09442,-1.63785 2.33807,-3.1532 3.73095,-4.54609 1.39283,-1.39288 2.90815,-2.63653 4.54602,-3.73092 1.63782,-1.09436 3.3667,-2.01847 5.18659,-2.77228 1.81988,-0.75381 3.69586,-1.32288 5.62787,-1.70718 C 825.07922,360.19214 827.03015,360 829,360 Z"
             style="fill:none;stroke:#82b366;stroke-width:1;stroke-linecap:butt;stroke-linejoin:miter;stroke-miterlimit:10;stroke-dasharray:none;stroke-opacity:1"
             id="path636" />
        </g>
        <g
           id="g638"
           transform="scale(1.9994633)">
          <text
             xml:space="preserve"
             transform="translate(835.1875,437)"
             style="font-variant:normal;font-weight:normal;font-size:28px;font-family:'Microsoft YaHei UI';-inkscape-font-specification:MicrosoftYaHei;writing-mode:lr-tb;fill:#000000;fill-opacity:1;fill-rule:nonzero;stroke:none"
             id="text642"><tspan
               x="0"
               y="0"
               id="tspan640">後</tspan></text>
          <text
             xml:space="preserve"
             transform="translate(863.1875,437)"
             style="font-variant:normal;font-weight:normal;font-size:28px;font-family:Arial;-inkscape-font-specification:ArialMT;writing-mode:lr-tb;fill:#000000;fill-opacity:1;fill-rule:nonzero;stroke:none"
             id="text646"><tspan
               x="0 20.220703 42 60.675781 76.248047 91.820312"
               y="0"
               sodipodi:role="line"
               id="tspan644">COP28:</tspan></text>
          <text
             xml:space="preserve"
             transform="translate(801,485)"
             style="font-variant:normal;font-weight:bold;font-size:28px;font-family:'Microsoft YaHei UI';-inkscape-font-specification:MicrosoftYaHei-Bold;writing-mode:lr-tb;fill:#000000;fill-opacity:1;fill-rule:nonzero;stroke:none"
             id="text650"><tspan
               x="0 28 56 84 112 140 168"
               y="0"
               sodipodi:role="line"
               id="tspan648">同行學習工作組</tspan></text>
          <text
             xml:space="preserve"
             transform="translate(835.65625,544)"
             style="font-variant:normal;font-weight:normal;font-size:24px;font-family:Arial;-inkscape-font-specification:ArialMT;writing-mode:lr-tb;fill:#000000;fill-opacity:1;fill-rule:nonzero;stroke:none"
             id="text654"><tspan
               x="0"
               y="0"
               id="tspan652">[</tspan></text>
          <text
             xml:space="preserve"
             transform="translate(842.32422,544)"
             style="font-variant:normal;font-weight:normal;font-size:24px;font-family:'Microsoft YaHei UI';-inkscape-font-specification:MicrosoftYaHei;writing-mode:lr-tb;fill:#000000;fill-opacity:1;fill-rule:nonzero;stroke:none"
             id="text658"><tspan
               x="0 24 48 72 96"
               y="0"
               sodipodi:role="line"
               id="tspan656">綠色標准和</tspan></text>
          <text
             xml:space="preserve"
             transform="translate(823.65625,573)"
             style="font-variant:normal;font-weight:normal;font-size:24px;font-family:'Microsoft YaHei UI';-inkscape-font-specification:MicrosoftYaHei;writing-mode:lr-tb;fill:#000000;fill-opacity:1;fill-rule:nonzero;stroke:none"
             id="text662"><tspan
               x="0 24 48 72 96 120"
               y="0"
               sodipodi:role="line"
               id="tspan660">溫室氣體支柱</tspan></text>
          <text
             xml:space="preserve"
             transform="translate(967.65625,573)"
             style="font-variant:normal;font-weight:normal;font-size:24px;font-family:Arial;-inkscape-font-specification:ArialMT;writing-mode:lr-tb;fill:#000000;fill-opacity:1;fill-rule:nonzero;stroke:none"
             id="text666"><tspan
               x="0"
               y="0"
               id="tspan664">]</tspan></text>
          <text
             xml:space="preserve"
             transform="translate(824,624)"
             style="font-variant:normal;font-weight:normal;font-size:18px;font-family:'Microsoft YaHei UI';-inkscape-font-specification:MicrosoftYaHei;writing-mode:lr-tb;fill:#000000;fill-opacity:1;fill-rule:nonzero;stroke:none"
             id="text670"><tspan
               x="0 18 36 54"
               y="0"
               sodipodi:role="line"
               id="tspan668">每年兩次</tspan></text>
          <text
             xml:space="preserve"
             transform="translate(896,624)"
             style="font-variant:normal;font-weight:normal;font-size:12px;font-family:'Microsoft YaHei UI';-inkscape-font-specification:MicrosoftYaHei;writing-mode:lr-tb;fill:#000000;fill-opacity:1;fill-rule:nonzero;stroke:none"
             id="text674"><tspan
               x="0 12"
               y="0"
               sodipodi:role="line"
               id="tspan672">會議</tspan></text>
          <text
             xml:space="preserve"
             transform="translate(920,624)"
             style="font-variant:normal;font-weight:normal;font-size:18px;font-family:'Microsoft YaHei UI';-inkscape-font-specification:MicrosoftYaHei;writing-mode:lr-tb;fill:#000000;fill-opacity:1;fill-rule:nonzero;stroke:none"
             id="text678"><tspan
               x="0 18 36"
               y="0"
               sodipodi:role="line"
               id="tspan676">或更多</tspan></text>
        </g>
        <g
           id="g680"
           transform="matrix(1.9994633,0,0,1.9994633,0.99973166,0.99973166)">
          <path
             d="m 535.75,320 h 166.5 c 1.96979,0 3.92072,0.19214 5.85266,0.57645 1.93195,0.38427 3.8078,0.95334 5.62769,1.70715 1.81988,0.75381 3.54876,1.67792 5.18658,2.77228 1.63788,1.09439 3.15332,2.33804 4.5462,3.73089 1.39289,1.39286 2.63648,2.90821 3.7309,4.54605 1.09436,1.63785 2.01843,3.3667 2.77228,5.18662 0.75384,1.81988 1.32287,3.69583 1.70715,5.62781 0.38434,1.93197 0.57648,3.8829 0.57654,5.85275 v 140 c -6e-5,1.96982 -0.1922,3.92072 -0.57654,5.85269 -0.38428,1.93198 -0.95331,3.80789 -1.70715,5.62778 -0.75385,1.81985 -1.67792,3.54874 -2.77234,5.18658 -1.09436,1.63788 -2.33795,3.15326 -3.73084,4.54615 -1.39288,1.39288 -2.90826,2.63647 -4.54614,3.73089 -1.63788,1.09436 -3.36676,2.01843 -5.18664,2.77222 -1.81989,0.75384 -3.69574,1.32287 -5.62769,1.70721 -1.93194,0.38428 -3.88287,0.57642 -5.85266,0.57648 h -166.5 c -1.96985,-6e-5 -3.92078,-0.1922 -5.85284,-0.57648 -1.93195,-0.38434 -3.80787,-0.95337 -5.62775,-1.70721 -1.81989,-0.75379 -3.54871,-1.67786 -5.18659,-2.77222 -1.63787,-1.09442 -3.15319,-2.33801 -4.54608,-3.73089 -1.39288,-1.39289 -2.6365,-2.90827 -3.73089,-4.54612 -1.09436,-1.63787 -2.01847,-3.36676 -2.77228,-5.18661 -0.75382,-1.81989 -1.32288,-3.6958 -1.70715,-5.62778 C 505.94211,493.92072 505.74997,491.96982 505.75,490 V 350 c -3e-5,-1.96985 0.19211,-3.92078 0.57639,-5.85275 0.3843,-1.93198 0.95336,-3.80793 1.70718,-5.62781 0.75381,-1.81992 1.67792,-3.54877 2.77228,-5.18662 1.09439,-1.63784 2.33801,-3.15319 3.73089,-4.54605 1.39289,-1.39285 2.90821,-2.6365 4.54608,-3.73089 1.63788,-1.09436 3.36676,-2.01847 5.18665,-2.77228 1.81982,-0.75381 3.69574,-1.32288 5.62775,-1.70715 C 531.82922,320.19214 533.78015,320 535.75,320 Z"
             style="fill:#f9f7ed;fill-opacity:1;fill-rule:nonzero;stroke:none"
             id="path682" />
          <path
             d="m 535.75,320 h 166.5 c 1.96979,0 3.92072,0.19214 5.85266,0.57645 1.93195,0.38427 3.8078,0.95334 5.62769,1.70715 1.81988,0.75381 3.54876,1.67792 5.18658,2.77228 1.63788,1.09439 3.15332,2.33804 4.5462,3.73089 1.39289,1.39286 2.63648,2.90821 3.7309,4.54605 1.09436,1.63785 2.01843,3.3667 2.77228,5.18662 0.75384,1.81988 1.32287,3.69583 1.70715,5.62781 0.38434,1.93197 0.57648,3.8829 0.57654,5.85275 v 140 c -6e-5,1.96982 -0.1922,3.92072 -0.57654,5.85269 -0.38428,1.93198 -0.95331,3.80789 -1.70715,5.62778 -0.75385,1.81985 -1.67792,3.54874 -2.77234,5.18658 -1.09436,1.63788 -2.33795,3.15326 -3.73084,4.54615 -1.39288,1.39288 -2.90826,2.63647 -4.54614,3.73089 -1.63788,1.09436 -3.36676,2.01843 -5.18664,2.77222 -1.81989,0.75384 -3.69574,1.32287 -5.62769,1.70721 -1.93194,0.38428 -3.88287,0.57642 -5.85266,0.57648 h -166.5 c -1.96985,-6e-5 -3.92078,-0.1922 -5.85284,-0.57648 -1.93195,-0.38434 -3.80787,-0.95337 -5.62775,-1.70721 -1.81989,-0.75379 -3.54871,-1.67786 -5.18659,-2.77222 -1.63787,-1.09442 -3.15319,-2.33801 -4.54608,-3.73089 -1.39288,-1.39289 -2.6365,-2.90827 -3.73089,-4.54612 -1.09436,-1.63787 -2.01847,-3.36676 -2.77228,-5.18661 -0.75382,-1.81989 -1.32288,-3.6958 -1.70715,-5.62778 C 505.94211,493.92072 505.74997,491.96982 505.75,490 V 350 c -3e-5,-1.96985 0.19211,-3.92078 0.57639,-5.85275 0.3843,-1.93198 0.95336,-3.80793 1.70718,-5.62781 0.75381,-1.81992 1.67792,-3.54877 2.77228,-5.18662 1.09439,-1.63784 2.33801,-3.15319 3.73089,-4.54605 1.39289,-1.39285 2.90821,-2.6365 4.54608,-3.73089 1.63788,-1.09436 3.36676,-2.01847 5.18665,-2.77228 1.81982,-0.75381 3.69574,-1.32288 5.62775,-1.70715 C 531.82922,320.19214 533.78015,320 535.75,320 Z"
             style="fill:none;stroke:#36393d;stroke-width:1;stroke-linecap:butt;stroke-linejoin:miter;stroke-miterlimit:10;stroke-dasharray:none;stroke-opacity:1"
             id="path684" />
        </g>
        <g
           id="g686"
           transform="scale(1.9994633)">
          <text
             xml:space="preserve"
             transform="translate(529.09375,365)"
             style="font-variant:normal;font-weight:normal;font-size:28px;font-family:'Microsoft YaHei UI';-inkscape-font-specification:MicrosoftYaHei;writing-mode:lr-tb;fill:#000000;fill-opacity:1;fill-rule:nonzero;stroke:none"
             id="text690"><tspan
               x="0 28 56 84"
               y="0"
               sodipodi:role="line"
               id="tspan688">行動呼吁</tspan></text>
          <text
             xml:space="preserve"
             transform="translate(641.09375,365)"
             style="font-variant:normal;font-weight:bold;font-size:28px;font-family:'Microsoft YaHei UI';-inkscape-font-specification:MicrosoftYaHei-Bold;writing-mode:lr-tb;fill:#990000;fill-opacity:1;fill-rule:nonzero;stroke:none"
             id="text694"><tspan
               x="0 28"
               y="0"
               sodipodi:role="line"
               id="tspan692">文件</tspan></text>
          <text
             xml:space="preserve"
             transform="translate(697.09375,365)"
             style="font-variant:normal;font-weight:normal;font-size:28px;font-family:Arial;-inkscape-font-specification:ArialMT;writing-mode:lr-tb;fill:#000000;fill-opacity:1;fill-rule:nonzero;stroke:none"
             id="text698"><tspan
               x="0"
               y="0"
               id="tspan696">:</tspan></text>
          <text
             xml:space="preserve"
             transform="translate(526.98438,389)"
             style="font-variant:normal;font-weight:normal;font-size:18px;font-family:'Microsoft YaHei UI';-inkscape-font-specification:MicrosoftYaHei;writing-mode:lr-tb;fill:#000000;fill-opacity:1;fill-rule:nonzero;stroke:none"
             id="text702"><tspan
               x="0 18 36 54 72 90 108 126 144 162"
               y="0"
               sodipodi:role="line"
               id="tspan700">識別、促進、承諾投入</tspan></text>
          <text
             xml:space="preserve"
             transform="translate(706.98438,389)"
             style="font-variant:normal;font-weight:normal;font-size:18px;font-family:Arial;-inkscape-font-specification:ArialMT;writing-mode:lr-tb;fill:#000000;fill-opacity:1;fill-rule:nonzero;stroke:none"
             id="text706"><tspan
               x="0"
               y="0"
               id="tspan704">:</tspan></text>
          <text
             xml:space="preserve"
             transform="translate(572.46875,432)"
             style="font-variant:normal;font-weight:normal;font-size:18px;font-family:Arial;-inkscape-font-specification:ArialMT;writing-mode:lr-tb;fill:#000000;fill-opacity:1;fill-rule:nonzero;stroke:none"
             id="text710"><tspan
               x="0 10.010742 20.021484 30.032227"
               y="0"
               sodipodi:role="line"
               id="tspan708">173 </tspan></text>
          <text
             xml:space="preserve"
             transform="translate(607.50195,432)"
             style="font-variant:normal;font-weight:normal;font-size:18px;font-family:'Microsoft YaHei UI';-inkscape-font-specification:MicrosoftYaHei;writing-mode:lr-tb;fill:#000000;fill-opacity:1;fill-rule:nonzero;stroke:none"
             id="text714"><tspan
               x="0"
               y="0"
               id="tspan712">項</tspan></text>
          <text
             xml:space="preserve"
             transform="translate(630.50293,432)"
             style="font-variant:normal;font-weight:normal;font-size:18px;font-family:'Microsoft YaHei UI';-inkscape-font-specification:MicrosoftYaHei;writing-mode:lr-tb;fill:#000000;fill-opacity:1;fill-rule:nonzero;stroke:none"
             id="text718"><tspan
               x="0 18"
               y="0"
               sodipodi:role="line"
               id="tspan716">標准</tspan></text>
          <text
             xml:space="preserve"
             transform="translate(515.46875,453)"
             style="font-variant:normal;font-weight:normal;font-size:18px;font-family:Arial;-inkscape-font-specification:ArialMT;writing-mode:lr-tb;fill:#000000;fill-opacity:1;fill-rule:nonzero;stroke:none"
             id="text722"><tspan
               x="0 5.0009766 10.001953 20.99707 33.996094 38.99707 43.998047 56.003906 69.00293 74.003906 79.004883 91.010742 105.01172 110.0127 115.01367 127.01953 139.02539 151.03125 156.03223 161.0332 173.03906 184.03418 193.03418 198.03516 203.03613"
               y="0"
               sodipodi:role="line"
               id="tspan720">[ITU/IEC/ISO/IEEE/IETF..]</tspan></text>
          <text
             xml:space="preserve"
             transform="translate(556.48438,496)"
             style="font-variant:normal;font-weight:normal;font-size:18px;font-family:'Microsoft YaHei UI';-inkscape-font-specification:MicrosoftYaHei;writing-mode:lr-tb;fill:#000000;fill-opacity:1;fill-rule:nonzero;stroke:none"
             id="text726"><tspan
               x="0 18 36 54 72 90 108"
               y="0"
               sodipodi:role="line"
               id="tspan724">三大標准化缺口</tspan></text>
        </g>
        <g
           id="g728"
           transform="matrix(1.9994633,0,0,1.9994633,0.99973166,0.99973166)">
          <path
             d="m 531.25,559 h 175.5 c 1.67432,0 3.33258,0.16333 4.97473,0.48993 1.64215,0.32666 3.2367,0.81036 4.78357,1.45111 1.54688,0.64075 3.01642,1.42627 4.40863,2.35651 1.39221,0.93017 2.6803,1.98724 3.86426,3.1712 1.1839,1.1839 2.24103,2.47198 3.17126,3.86414 0.93018,1.39221 1.71564,2.86175 2.35639,4.40863 0.64074,1.54687 1.12445,3.14141 1.45117,4.78363 0.3266,1.64221 0.48993,3.30047 0.48999,4.97485 v 119 c -6e-5,1.67438 -0.16339,3.33264 -0.49005,4.97479 -0.32666,1.64215 -0.81037,3.23664 -1.45111,4.78357 -0.64075,1.54688 -1.42621,3.01642 -2.35639,4.40863 -0.93023,1.39215 -1.98736,2.68018 -3.17126,3.8642 -1.18396,1.1839 -2.47205,2.24097 -3.86426,3.1712 -1.39221,0.93024 -2.86175,1.7157 -4.40863,2.35645 -1.54687,0.64074 -3.14142,1.12445 -4.78357,1.45105 -1.64215,0.32672 -3.30041,0.49005 -4.97473,0.49011 h -175.5 c -1.67438,-6e-5 -3.33264,-0.16339 -4.97485,-0.49005 -1.64222,-0.32666 -3.23676,-0.81037 -4.78363,-1.45111 -1.54694,-0.64075 -3.01648,-1.42621 -4.40863,-2.35645 -1.39216,-0.93023 -2.68018,-1.9873 -3.86414,-3.1712 -1.18396,-1.18402 -2.24106,-2.47211 -3.17126,-3.86426 -0.93027,-1.39215 -1.71576,-2.86169 -2.35648,-4.40857 -0.64075,-1.54693 -1.12445,-3.14142 -1.45108,-4.78357 -0.32663,-1.64215 -0.48996,-3.30041 -0.48993,-4.97479 v -119 c -3e-5,-1.67438 0.1633,-3.33264 0.48993,-4.97485 0.32663,-1.64222 0.81033,-3.23676 1.45108,-4.78363 0.64072,-1.54688 1.42621,-3.01642 2.35648,-4.40863 0.9302,-1.39216 1.9873,-2.68024 3.17126,-3.86414 1.18396,-1.18396 2.47198,-2.24103 3.86414,-3.1712 1.39215,-0.93024 2.86169,-1.71576 4.40863,-2.35651 1.54687,-0.64075 3.14141,-1.12445 4.78363,-1.45111 C 527.91736,559.16333 529.57562,559 531.25,559 Z"
             style="fill:#f9f7ed;fill-opacity:1;fill-rule:nonzero;stroke:none"
             id="path730" />
          <path
             d="m 531.25,559 h 175.5 c 1.67432,0 3.33258,0.16333 4.97473,0.48993 1.64215,0.32666 3.2367,0.81036 4.78357,1.45111 1.54688,0.64075 3.01642,1.42627 4.40863,2.35651 1.39221,0.93017 2.6803,1.98724 3.86426,3.1712 1.1839,1.1839 2.24103,2.47198 3.17126,3.86414 0.93018,1.39221 1.71564,2.86175 2.35639,4.40863 0.64074,1.54687 1.12445,3.14141 1.45117,4.78363 0.3266,1.64221 0.48993,3.30047 0.48999,4.97485 v 119 c -6e-5,1.67438 -0.16339,3.33264 -0.49005,4.97479 -0.32666,1.64215 -0.81037,3.23664 -1.45111,4.78357 -0.64075,1.54688 -1.42621,3.01642 -2.35639,4.40863 -0.93023,1.39215 -1.98736,2.68018 -3.17126,3.8642 -1.18396,1.1839 -2.47205,2.24097 -3.86426,3.1712 -1.39221,0.93024 -2.86175,1.7157 -4.40863,2.35645 -1.54687,0.64074 -3.14142,1.12445 -4.78357,1.45105 -1.64215,0.32672 -3.30041,0.49005 -4.97473,0.49011 h -175.5 c -1.67438,-6e-5 -3.33264,-0.16339 -4.97485,-0.49005 -1.64222,-0.32666 -3.23676,-0.81037 -4.78363,-1.45111 -1.54694,-0.64075 -3.01648,-1.42621 -4.40863,-2.35645 -1.39216,-0.93023 -2.68018,-1.9873 -3.86414,-3.1712 -1.18396,-1.18402 -2.24106,-2.47211 -3.17126,-3.86426 -0.93027,-1.39215 -1.71576,-2.86169 -2.35648,-4.40857 -0.64075,-1.54693 -1.12445,-3.14142 -1.45108,-4.78357 -0.32663,-1.64215 -0.48996,-3.30041 -0.48993,-4.97479 v -119 c -3e-5,-1.67438 0.1633,-3.33264 0.48993,-4.97485 0.32663,-1.64222 0.81033,-3.23676 1.45108,-4.78363 0.64072,-1.54688 1.42621,-3.01642 2.35648,-4.40863 0.9302,-1.39216 1.9873,-2.68024 3.17126,-3.86414 1.18396,-1.18396 2.47198,-2.24103 3.86414,-3.1712 1.39215,-0.93024 2.86169,-1.71576 4.40863,-2.35651 1.54687,-0.64075 3.14141,-1.12445 4.78363,-1.45111 C 527.91736,559.16333 529.57562,559 531.25,559 Z"
             style="fill:none;stroke:#36393d;stroke-width:1;stroke-linecap:butt;stroke-linejoin:miter;stroke-miterlimit:10;stroke-dasharray:none;stroke-opacity:1"
             id="path732" />
        </g>
        <g
           id="g734"
           transform="scale(1.9994633)">
          <text
             xml:space="preserve"
             transform="translate(545.57813,596)"
             style="font-variant:normal;font-weight:bold;font-size:28px;font-family:Arial;-inkscape-font-specification:Arial-BoldMT;writing-mode:lr-tb;fill:#000000;fill-opacity:1;fill-rule:nonzero;stroke:none"
             id="text738"><tspan
               x="0 20.220703 42 60.675781 76.248047"
               y="0"
               sodipodi:role="line"
               id="tspan736">COP28</tspan></text>
          <text
             xml:space="preserve"
             transform="translate(637.40625,596)"
             style="font-variant:normal;font-weight:bold;font-size:28px;font-family:'Microsoft YaHei UI';-inkscape-font-specification:MicrosoftYaHei-Bold;writing-mode:lr-tb;fill:#990000;fill-opacity:1;fill-rule:nonzero;stroke:none"
             id="text742"><tspan
               x="0 28"
               y="0"
               sodipodi:role="line"
               id="tspan740">會議</tspan></text>
          <text
             xml:space="preserve"
             transform="translate(599.48438,623)"
             style="font-variant:normal;font-weight:normal;font-size:20px;font-family:'Microsoft YaHei UI';-inkscape-font-specification:MicrosoftYaHei;writing-mode:lr-tb;fill:#000000;fill-opacity:1;fill-rule:nonzero;stroke:none"
             id="text746"><tspan
               x="0 20"
               y="0"
               sodipodi:role="line"
               id="tspan744">創建</tspan></text>
          <text
             xml:space="preserve"
             transform="translate(514.26563,654)"
             style="font-variant:normal;font-weight:normal;font-size:28px;font-family:'Microsoft YaHei UI';-inkscape-font-specification:MicrosoftYaHei;writing-mode:lr-tb;fill:#000000;fill-opacity:1;fill-rule:nonzero;stroke:none"
             id="text750"><tspan
               x="0 28 56 84 112 140 168"
               y="0"
               sodipodi:role="line"
               id="tspan748">同伴學習工作組</tspan></text>
          <text
             xml:space="preserve"
             transform="translate(710.26563,654)"
             style="font-variant:normal;font-weight:normal;font-size:28px;font-family:Arial;-inkscape-font-specification:ArialMT;writing-mode:lr-tb;fill:#000000;fill-opacity:1;fill-rule:nonzero;stroke:none"
             id="text754"><tspan
               x="0"
               y="0"
               id="tspan752">:</tspan></text>
          <text
             xml:space="preserve"
             transform="translate(559.48438,683)"
             style="font-variant:normal;font-weight:normal;font-size:24px;font-family:'Microsoft YaHei UI';-inkscape-font-specification:MicrosoftYaHei;writing-mode:lr-tb;fill:#000000;fill-opacity:1;fill-rule:nonzero;stroke:none"
             id="text758"><tspan
               x="0 24 48 72 96"
               y="0"
               sodipodi:role="line"
               id="tspan756">以溫室氣體</tspan></text>
          <text
             xml:space="preserve"
             transform="translate(532.15625,712)"
             style="font-variant:normal;font-weight:normal;font-size:24px;font-family:'Microsoft YaHei UI';-inkscape-font-specification:MicrosoftYaHei;writing-mode:lr-tb;fill:#000000;fill-opacity:1;fill-rule:nonzero;stroke:none"
             id="text762"><tspan
               x="0 24 48 72 96 120 144"
               y="0"
               sodipodi:role="line"
               id="tspan760">為支柱的綜合群</tspan></text>
        </g>
        <g
           id="g764"
           transform="matrix(1.9994633,0,0,1.9994633,0.99973166,0.99973166)">
          <path
             d="m 270,320 h 140 c 1.96982,0 3.92072,0.19214 5.85269,0.57645 1.93195,0.38427 3.80786,0.95334 5.62775,1.70715 1.81985,0.75381 3.54873,1.67792 5.18658,2.77228 1.63788,1.09439 3.15326,2.33804 4.54615,3.73089 1.39285,1.39286 2.63647,2.90821 3.73086,4.54605 1.09439,1.63785 2.01849,3.3667 2.77231,5.18662 0.75381,1.81988 1.32288,3.69583 1.70715,5.62781 0.38431,1.93197 0.57648,3.8829 0.57651,5.85275 v 140 c -3e-5,1.96982 -0.1922,3.92072 -0.57651,5.85269 -0.38431,1.93198 -0.95337,3.80789 -1.70718,5.62778 -0.75382,1.81985 -1.67789,3.54874 -2.77228,5.18658 -1.09439,1.63788 -2.33801,3.15326 -3.73086,4.54615 -1.39289,1.39288 -2.90827,2.63647 -4.54615,3.73089 -1.63785,1.09436 -3.36673,2.01843 -5.18658,2.77222 -1.81989,0.75384 -3.6958,1.32287 -5.62775,1.70721 C 413.92072,519.8078 411.96982,519.99994 410,520 H 270 c -1.96982,-6e-5 -3.92075,-0.1922 -5.85272,-0.57648 -1.93198,-0.38434 -3.80792,-0.95337 -5.62781,-1.70721 -1.81989,-0.75379 -3.54875,-1.67786 -5.1866,-2.77222 -1.63785,-1.09442 -3.15321,-2.33801 -4.54608,-3.73089 -1.39288,-1.39289 -2.63652,-2.90827 -3.7309,-4.54612 -1.09439,-1.63787 -2.01849,-3.36676 -2.77231,-5.18661 -0.75383,-1.81989 -1.32287,-3.6958 -1.70716,-5.62778 C 240.19212,493.92072 239.99998,491.96982 240,490 V 350 c -2e-5,-1.96985 0.19211,-3.92078 0.5764,-5.85275 0.38429,-1.93198 0.95335,-3.80793 1.70718,-5.62781 0.75382,-1.81992 1.67792,-3.54877 2.77231,-5.18662 1.09438,-1.63784 2.33802,-3.15319 3.7309,-4.54605 1.39287,-1.39285 2.90823,-2.6365 4.54608,-3.73089 1.63785,-1.09436 3.36671,-2.01847 5.1866,-2.77228 1.81989,-0.75381 3.69583,-1.32288 5.62781,-1.70715 C 266.07925,320.19214 268.03018,320 270,320 Z"
             style="fill:#dae8fc;fill-opacity:1;fill-rule:nonzero;stroke:none"
             id="path766" />
          <path
             d="m 270,320 h 140 c 1.96982,0 3.92072,0.19214 5.85269,0.57645 1.93195,0.38427 3.80786,0.95334 5.62775,1.70715 1.81985,0.75381 3.54873,1.67792 5.18658,2.77228 1.63788,1.09439 3.15326,2.33804 4.54615,3.73089 1.39285,1.39286 2.63647,2.90821 3.73086,4.54605 1.09439,1.63785 2.01849,3.3667 2.77231,5.18662 0.75381,1.81988 1.32288,3.69583 1.70715,5.62781 0.38431,1.93197 0.57648,3.8829 0.57651,5.85275 v 140 c -3e-5,1.96982 -0.1922,3.92072 -0.57651,5.85269 -0.38431,1.93198 -0.95337,3.80789 -1.70718,5.62778 -0.75382,1.81985 -1.67789,3.54874 -2.77228,5.18658 -1.09439,1.63788 -2.33801,3.15326 -3.73086,4.54615 -1.39289,1.39288 -2.90827,2.63647 -4.54615,3.73089 -1.63785,1.09436 -3.36673,2.01843 -5.18658,2.77222 -1.81989,0.75384 -3.6958,1.32287 -5.62775,1.70721 C 413.92072,519.8078 411.96982,519.99994 410,520 H 270 c -1.96982,-6e-5 -3.92075,-0.1922 -5.85272,-0.57648 -1.93198,-0.38434 -3.80792,-0.95337 -5.62781,-1.70721 -1.81989,-0.75379 -3.54875,-1.67786 -5.1866,-2.77222 -1.63785,-1.09442 -3.15321,-2.33801 -4.54608,-3.73089 -1.39288,-1.39289 -2.63652,-2.90827 -3.7309,-4.54612 -1.09439,-1.63787 -2.01849,-3.36676 -2.77231,-5.18661 -0.75383,-1.81989 -1.32287,-3.6958 -1.70716,-5.62778 C 240.19212,493.92072 239.99998,491.96982 240,490 V 350 c -2e-5,-1.96985 0.19211,-3.92078 0.5764,-5.85275 0.38429,-1.93198 0.95335,-3.80793 1.70718,-5.62781 0.75382,-1.81992 1.67792,-3.54877 2.77231,-5.18662 1.09438,-1.63784 2.33802,-3.15319 3.7309,-4.54605 1.39287,-1.39285 2.90823,-2.6365 4.54608,-3.73089 1.63785,-1.09436 3.36671,-2.01847 5.1866,-2.77228 1.81989,-0.75381 3.69583,-1.32288 5.62781,-1.70715 C 266.07925,320.19214 268.03018,320 270,320 Z"
             style="fill:none;stroke:#6c8ebf;stroke-width:1;stroke-linecap:butt;stroke-linejoin:miter;stroke-miterlimit:10;stroke-dasharray:none;stroke-opacity:1"
             id="path768" />
        </g>
        <g
           id="g770"
           transform="scale(1.9994633)">
          <text
             xml:space="preserve"
             transform="translate(256,377)"
             style="font-variant:normal;font-weight:bold;font-size:28px;font-family:'Microsoft YaHei UI';-inkscape-font-specification:MicrosoftYaHei-Bold;writing-mode:lr-tb;fill:#000000;fill-opacity:1;fill-rule:nonzero;stroke:none"
             id="text774"><tspan
               x="0 28 56 84"
               y="0"
               sodipodi:role="line"
               id="tspan772">行動呼吁</tspan></text>
          <text
             xml:space="preserve"
             transform="translate(368,377)"
             style="font-variant:normal;font-weight:bold;font-size:28px;font-family:'Microsoft YaHei UI';-inkscape-font-specification:MicrosoftYaHei-Bold;writing-mode:lr-tb;fill:#330000;fill-opacity:1;fill-rule:nonzero;stroke:none"
             id="text778"><tspan
               x="0 28"
               y="0"
               sodipodi:role="line"
               id="tspan776">文件</tspan></text>
          <text
             xml:space="preserve"
             transform="translate(308.65625,411)"
             style="font-variant:normal;font-weight:bold;font-size:28px;font-family:'Microsoft YaHei UI';-inkscape-font-specification:MicrosoftYaHei-Bold;writing-mode:lr-tb;fill:#000000;fill-opacity:1;fill-rule:nonzero;stroke:none"
             id="text782"><tspan
               x="0 28"
               y="0"
               sodipodi:role="line"
               id="tspan780">結構</tspan></text>
          <text
             xml:space="preserve"
             transform="translate(364.65625,411)"
             style="font-variant:normal;font-weight:normal;font-size:24px;font-family:Arial;-inkscape-font-specification:ArialMT;writing-mode:lr-tb;fill:#000000;fill-opacity:1;fill-rule:nonzero;stroke:none"
             id="text786"><tspan
               x="0"
               y="0"
               id="tspan784">:</tspan></text>
          <text
             xml:space="preserve"
             transform="translate(244.4375,461)"
             style="font-variant:normal;font-weight:normal;font-size:20px;font-family:Arial;-inkscape-font-specification:ArialMT;writing-mode:lr-tb;fill:#000000;fill-opacity:1;fill-rule:nonzero;stroke:none"
             id="text790"><tspan
               x="0 5.5566406"
               y="0"
               sodipodi:role="line"
               id="tspan788">[ </tspan></text>
          <text
             xml:space="preserve"
             transform="translate(255.55078,461)"
             style="font-variant:normal;font-weight:normal;font-size:20px;font-family:'Microsoft YaHei UI';-inkscape-font-specification:MicrosoftYaHei;writing-mode:lr-tb;fill:#000000;fill-opacity:1;fill-rule:nonzero;stroke:none"
             id="text794"><tspan
               x="0 20 40 60 80 100 120 140 160"
               y="0"
               sodipodi:role="line"
               id="tspan792">標准、當前最佳實踐</tspan></text>
          <text
             xml:space="preserve"
             transform="translate(304.4375,485)"
             style="font-variant:normal;font-weight:normal;font-size:20px;font-family:'Microsoft YaHei UI';-inkscape-font-specification:MicrosoftYaHei;writing-mode:lr-tb;fill:#000000;fill-opacity:1;fill-rule:nonzero;stroke:none"
             id="text798"><tspan
               x="0 20 40"
               y="0"
               sodipodi:role="line"
               id="tspan796">和差距</tspan></text>
          <text
             xml:space="preserve"
             transform="translate(369.99414,485)"
             style="font-variant:normal;font-weight:normal;font-size:20px;font-family:Arial;-inkscape-font-specification:ArialMT;writing-mode:lr-tb;fill:#000000;fill-opacity:1;fill-rule:nonzero;stroke:none"
             id="text802"><tspan
               x="0"
               y="0"
               id="tspan800">]</tspan></text>
        </g>
        <g
           id="g804"
           transform="matrix(1.9994633,0,0,1.9994633,0.99973166,0.99973166)">
          <path
             d="m 261.14999,561 h 157.70002 c 1.3887,0 2.7641,0.13544 4.12616,0.40637 1.36203,0.27094 2.68457,0.67212 3.96756,1.20355 1.28299,0.53144 2.50186,1.18293 3.65655,1.95441 1.15469,0.77155 2.22302,1.64832 3.20502,2.63031 0.98196,0.982 1.8587,2.05029 2.63025,3.20496 0.77151,1.15472 1.423,2.37359 1.95446,3.65661 0.53144,1.28302 0.93262,2.60553 1.20356,3.96765 0.27093,1.362 0.4064,2.73743 0.40643,4.12616 v 98.69996 c -3e-5,1.38867 -0.1355,2.76403 -0.40643,4.12609 -0.27097,1.362 -0.67215,2.68457 -1.20359,3.96759 -0.53143,1.28302 -1.18292,2.50184 -1.95443,3.65656 -0.77155,1.15472 -1.64832,2.22308 -2.63028,3.20508 -0.982,0.98193 -2.05033,1.85864 -3.20499,2.63019 -1.15472,0.77154 -2.3736,1.42303 -3.65658,1.95446 -1.28299,0.53144 -2.60553,0.93262 -3.96756,1.20356 -1.36203,0.27093 -2.73743,0.40643 -4.12613,0.40649 H 261.14999 c -1.38873,-6e-5 -2.76413,-0.13556 -4.12619,-0.40649 -1.36203,-0.27094 -2.68455,-0.67212 -3.96757,-1.20356 -1.28302,-0.53143 -2.50188,-1.18292 -3.65656,-1.95453 -1.15469,-0.77148 -2.22302,-1.64819 -3.20498,-2.63012 -0.982,-0.982 -1.85875,-2.05036 -2.63028,-3.20508 -0.77155,-1.15472 -1.42304,-2.37354 -1.95449,-3.65656 -0.53144,-1.28302 -0.93263,-2.60559 -1.20355,-3.96759 -0.27093,-1.36206 -0.40639,-2.73742 -0.40637,-4.12609 v -98.69996 c -2e-5,-1.38873 0.13544,-2.76416 0.40636,-4.12622 0.27092,-1.36206 0.67212,-2.68457 1.20356,-3.96759 0.53145,-1.28302 1.18294,-2.50189 1.95449,-3.65661 0.77153,-1.15467 1.64828,-2.22296 2.63028,-3.20496 0.98196,-0.98199 2.05029,-1.85876 3.20498,-2.63031 1.15468,-0.77148 2.37354,-1.42297 3.65656,-1.95441 1.28302,-0.53143 2.60556,-0.93261 3.9676,-1.20355 C 258.38586,561.13544 259.76126,561 261.14999,561 Z"
             style="fill:#dae8fc;fill-opacity:1;fill-rule:nonzero;stroke:none"
             id="path806" />
          <path
             d="m 261.14999,561 h 157.70002 c 1.3887,0 2.7641,0.13544 4.12616,0.40637 1.36203,0.27094 2.68457,0.67212 3.96756,1.20355 1.28299,0.53144 2.50186,1.18293 3.65655,1.95441 1.15469,0.77155 2.22302,1.64832 3.20502,2.63031 0.98196,0.982 1.8587,2.05029 2.63025,3.20496 0.77151,1.15472 1.423,2.37359 1.95446,3.65661 0.53144,1.28302 0.93262,2.60553 1.20356,3.96765 0.27093,1.362 0.4064,2.73743 0.40643,4.12616 v 98.69996 c -3e-5,1.38867 -0.1355,2.76403 -0.40643,4.12609 -0.27097,1.362 -0.67215,2.68457 -1.20359,3.96759 -0.53143,1.28302 -1.18292,2.50184 -1.95443,3.65656 -0.77155,1.15472 -1.64832,2.22308 -2.63028,3.20508 -0.982,0.98193 -2.05033,1.85864 -3.20499,2.63019 -1.15472,0.77154 -2.3736,1.42303 -3.65658,1.95446 -1.28299,0.53144 -2.60553,0.93262 -3.96756,1.20356 -1.36203,0.27093 -2.73743,0.40643 -4.12613,0.40649 H 261.14999 c -1.38873,-6e-5 -2.76413,-0.13556 -4.12619,-0.40649 -1.36203,-0.27094 -2.68455,-0.67212 -3.96757,-1.20356 -1.28302,-0.53143 -2.50188,-1.18292 -3.65656,-1.95453 -1.15469,-0.77148 -2.22302,-1.64819 -3.20498,-2.63012 -0.982,-0.982 -1.85875,-2.05036 -2.63028,-3.20508 -0.77155,-1.15472 -1.42304,-2.37354 -1.95449,-3.65656 -0.53144,-1.28302 -0.93263,-2.60559 -1.20355,-3.96759 -0.27093,-1.36206 -0.40639,-2.73742 -0.40637,-4.12609 v -98.69996 c -2e-5,-1.38873 0.13544,-2.76416 0.40636,-4.12622 0.27092,-1.36206 0.67212,-2.68457 1.20356,-3.96759 0.53145,-1.28302 1.18294,-2.50189 1.95449,-3.65661 0.77153,-1.15467 1.64828,-2.22296 2.63028,-3.20496 0.98196,-0.98199 2.05029,-1.85876 3.20498,-2.63031 1.15468,-0.77148 2.37354,-1.42297 3.65656,-1.95441 1.28302,-0.53143 2.60556,-0.93261 3.9676,-1.20355 C 258.38586,561.13544 259.76126,561 261.14999,561 Z"
             style="fill:none;stroke:#6c8ebf;stroke-width:1;stroke-linecap:butt;stroke-linejoin:miter;stroke-miterlimit:10;stroke-dasharray:none;stroke-opacity:1"
             id="path808" />
        </g>
        <g
           id="g810"
           transform="scale(1.9994633)">
          <text
             xml:space="preserve"
             transform="translate(262.20313,613)"
             style="font-variant:normal;font-weight:bold;font-size:28px;font-family:'Microsoft YaHei UI';-inkscape-font-specification:MicrosoftYaHei-Bold;writing-mode:lr-tb;fill:#000000;fill-opacity:1;fill-rule:nonzero;stroke:none"
             id="text814"><tspan
               x="0"
               y="0"
               id="tspan812">第</tspan></text>
          <text
             xml:space="preserve"
             transform="translate(297.98243,613)"
             style="font-variant:normal;font-weight:bold;font-size:28px;font-family:Arial;-inkscape-font-specification:Arial-BoldMT;writing-mode:lr-tb;fill:#000000;fill-opacity:1;fill-rule:nonzero;stroke:none"
             id="text818"><tspan
               x="0 15.572266 23.351562 32.675781 40.455078 56.027344"
               y="0"
               sodipodi:role="line"
               id="tspan816">1 - 8 </tspan></text>
          <text
             xml:space="preserve"
             transform="translate(361.78907,613)"
             style="font-variant:normal;font-weight:bold;font-size:28px;font-family:'Microsoft YaHei UI';-inkscape-font-specification:MicrosoftYaHei-Bold;writing-mode:lr-tb;fill:#000000;fill-opacity:1;fill-rule:nonzero;stroke:none"
             id="text822"><tspan
               x="0 28"
               y="0"
               sodipodi:role="line"
               id="tspan820">次呼</tspan></text>
          <text
             xml:space="preserve"
             transform="translate(317.4375,647)"
             style="font-variant:normal;font-weight:bold;font-size:28px;font-family:'Microsoft YaHei UI';-inkscape-font-specification:MicrosoftYaHei-Bold;writing-mode:lr-tb;fill:#000000;fill-opacity:1;fill-rule:nonzero;stroke:none"
             id="text826"><tspan
               x="0"
               y="0"
               id="tspan824">吁</tspan></text>
          <text
             xml:space="preserve"
             transform="translate(345.4375,647)"
             style="font-variant:normal;font-weight:bold;font-size:28px;font-family:Arial;-inkscape-font-specification:Arial-BoldMT;writing-mode:lr-tb;fill:#000000;fill-opacity:1;fill-rule:nonzero;stroke:none"
             id="text830"><tspan
               x="0 9.3242188"
               y="0"
               sodipodi:role="line"
               id="tspan828">: </tspan></text>
          <text
             xml:space="preserve"
             transform="translate(251.79688,673)"
             style="font-variant:normal;font-weight:normal;font-size:20px;font-family:Arial;-inkscape-font-specification:ArialMT;writing-mode:lr-tb;fill:#000000;fill-opacity:1;fill-rule:nonzero;stroke:none"
             id="text834"><tspan
               x="0"
               y="0"
               id="tspan832">7</tspan></text>
          <text
             xml:space="preserve"
             transform="translate(262.91993,673)"
             style="font-variant:normal;font-weight:normal;font-size:20px;font-family:'Microsoft YaHei UI';-inkscape-font-specification:MicrosoftYaHei;writing-mode:lr-tb;fill:#000000;fill-opacity:1;fill-rule:nonzero;stroke:none"
             id="text838"><tspan
               x="0"
               y="0"
               id="tspan836">月</tspan></text>
          <text
             xml:space="preserve"
             transform="translate(282.91993,673)"
             style="font-variant:normal;font-weight:normal;font-size:20px;font-family:Arial;-inkscape-font-specification:ArialMT;writing-mode:lr-tb;fill:#000000;fill-opacity:1;fill-rule:nonzero;stroke:none"
             id="text842"><tspan
               x="0 11.123047"
               y="0"
               sodipodi:role="line"
               id="tspan840">30</tspan></text>
          <text
             xml:space="preserve"
             transform="translate(305.16602,673)"
             style="font-variant:normal;font-weight:normal;font-size:20px;font-family:'Microsoft YaHei UI';-inkscape-font-specification:MicrosoftYaHei;writing-mode:lr-tb;fill:#000000;fill-opacity:1;fill-rule:nonzero;stroke:none"
             id="text846"><tspan
               x="0 20"
               y="0"
               sodipodi:role="line"
               id="tspan844">日至</tspan></text>
          <text
             xml:space="preserve"
             transform="translate(345.16602,673)"
             style="font-variant:normal;font-weight:normal;font-size:20px;font-family:Arial;-inkscape-font-specification:ArialMT;writing-mode:lr-tb;fill:#000000;fill-opacity:1;fill-rule:nonzero;stroke:none"
             id="text850"><tspan
               x="0 9.6386719"
               y="0"
               sodipodi:role="line"
               id="tspan848">11</tspan></text>
          <text
             xml:space="preserve"
             transform="translate(365.92774,673)"
             style="font-variant:normal;font-weight:normal;font-size:20px;font-family:'Microsoft YaHei UI';-inkscape-font-specification:MicrosoftYaHei;writing-mode:lr-tb;fill:#000000;fill-opacity:1;fill-rule:nonzero;stroke:none"
             id="text854"><tspan
               x="0"
               y="0"
               id="tspan852">月</tspan></text>
          <text
             xml:space="preserve"
             transform="translate(385.92774,673)"
             style="font-variant:normal;font-weight:normal;font-size:20px;font-family:Arial;-inkscape-font-specification:ArialMT;writing-mode:lr-tb;fill:#000000;fill-opacity:1;fill-rule:nonzero;stroke:none"
             id="text858"><tspan
               x="0 11.123047"
               y="0"
               sodipodi:role="line"
               id="tspan856">13</tspan></text>
          <text
             xml:space="preserve"
             transform="translate(408.17383,673)"
             style="font-variant:normal;font-weight:normal;font-size:20px;font-family:'Microsoft YaHei UI';-inkscape-font-specification:MicrosoftYaHei;writing-mode:lr-tb;fill:#000000;fill-opacity:1;fill-rule:nonzero;stroke:none"
             id="text862"><tspan
               x="0"
               y="0"
               id="tspan860">日</tspan></text>
        </g>
        <g
           id="g864"
           transform="matrix(1.9994633,0,0,1.9994633,0.99973166,0.99973166)">
          <path
             d="m 619,280 v 40"
             style="fill:none;stroke:#d6b656;stroke-width:1;stroke-linecap:butt;stroke-linejoin:miter;stroke-miterlimit:10;stroke-dasharray:none;stroke-opacity:1"
             id="path866" />
          <path
             d="m 340,280 v 40"
             style="fill:none;stroke:#6c8ebf;stroke-width:1;stroke-linecap:butt;stroke-linejoin:miter;stroke-miterlimit:10;stroke-dasharray:none;stroke-opacity:1"
             id="path868" />
          <path
             d="m 340,520 v 41"
             style="fill:none;stroke:#6c8ebf;stroke-width:1;stroke-linecap:butt;stroke-linejoin:miter;stroke-miterlimit:10;stroke-dasharray:none;stroke-opacity:1"
             id="path870" />
          <path
             d="m 619,520 v 39"
             style="fill:none;stroke:#d6b656;stroke-width:1;stroke-linecap:butt;stroke-linejoin:miter;stroke-miterlimit:10;stroke-dasharray:none;stroke-opacity:1"
             id="path872" />
          <path
             d="M 495.64999,420 H 440"
             style="fill:none;stroke:#000000;stroke-width:1;stroke-linecap:butt;stroke-linejoin:miter;stroke-miterlimit:10;stroke-dasharray:none;stroke-opacity:1"
             id="path874" />
          <path
             d="m 502.39999,420 -9,4.5 2.25,-4.5 -2.25,-4.5 z"
             style="fill:#000000;fill-opacity:1;fill-rule:nonzero;stroke:none"
             id="path876" />
          <path
             d="m 502.39999,420 -9,4.5 2.25,-4.5 -2.25,-4.5 z"
             style="fill:none;stroke:#000000;stroke-width:1;stroke-linecap:butt;stroke-linejoin:miter;stroke-miterlimit:10;stroke-dasharray:none;stroke-opacity:1"
             id="path878" />
          <path
             d="M 788.90002,520 H 765.70001 V 420 H 732.25"
             style="fill:none;stroke:#000000;stroke-width:1;stroke-linecap:butt;stroke-linejoin:miter;stroke-miterlimit:10;stroke-dasharray:none;stroke-opacity:1"
             id="path880" />
          <path
             d="m 795.65002,520 -9,4.5 2.25,-4.5 -2.25,-4.5 z"
             style="fill:#000000;fill-opacity:1;fill-rule:nonzero;stroke:none"
             id="path882" />
          <path
             d="m 795.65002,520 -9,4.5 2.25,-4.5 -2.25,-4.5 z"
             style="fill:none;stroke:#000000;stroke-width:1;stroke-linecap:butt;stroke-linejoin:miter;stroke-miterlimit:10;stroke-dasharray:none;stroke-opacity:1"
             id="path884" />
          <path
             d="M 788.90002,520 H 765.70001 V 644 H 732.25"
             style="fill:none;stroke:#000000;stroke-width:1;stroke-linecap:butt;stroke-linejoin:miter;stroke-miterlimit:10;stroke-dasharray:none;stroke-opacity:1"
             id="path886" />
          <path
             d="m 795.65002,520 -9,4.5 2.25,-4.5 -2.25,-4.5 z"
             style="fill:#000000;fill-opacity:1;fill-rule:nonzero;stroke:none"
             id="path888" />
          <path
             d="m 795.65002,520 -9,4.5 2.25,-4.5 -2.25,-4.5 z"
             style="fill:none;stroke:#000000;stroke-width:1;stroke-linecap:butt;stroke-linejoin:miter;stroke-miterlimit:10;stroke-dasharray:none;stroke-opacity:1"
             id="path890" />
        </g>
      </g>
    </g>
  </g>
</svg>
